<svg width="104" height="132" viewBox="0 0 104 132" fill="none" xmlns="http://www.w3.org/2000/svg">
<path d="M65.7743 31.347H65.0495V11.4917C65.0495 8.44392 63.8388 5.52096 61.6837 3.36585C59.5286 1.21073 56.6056 3.84571e-06 53.5578 0H11.4917C9.98261 -3.80834e-06 8.48828 0.297234 7.09404 0.874742C5.6998 1.45225 4.43296 2.29872 3.36586 3.36582C2.29875 4.43292 1.45228 5.69975 0.874763 7.09399C0.297248 8.48822 3.0943e-06 9.98256 0 11.4917V120.419C-1.66616e-06 121.928 0.297241 123.423 0.874752 124.817C1.45226 126.211 2.29873 127.478 3.36583 128.545C4.43294 129.612 5.69977 130.459 7.094 131.036C8.48824 131.614 9.98258 131.911 11.4917 131.911H53.5578C56.6055 131.911 59.5285 130.7 61.6836 128.545C63.8387 126.39 65.0495 123.467 65.0495 120.419V45.4803H65.7743L65.7743 31.347Z" fill="#898989"/>
<path d="M54.0215 2.99023H48.5304C48.783 3.60933 48.8793 4.28102 48.8111 4.94614C48.7429 5.61125 48.5121 6.24939 48.1392 6.80432C47.7663 7.35926 47.2626 7.81396 46.6725 8.12837C46.0824 8.44279 45.4241 8.60727 44.7555 8.60732H20.6564C19.9877 8.60727 19.3294 8.44279 18.7393 8.12838C18.1493 7.81396 17.6456 7.35926 17.2726 6.80433C16.8997 6.24939 16.6689 5.61126 16.6007 4.94614C16.5325 4.28102 16.6289 3.60933 16.8814 2.99023H11.7528C9.47672 2.99023 7.29389 3.89439 5.68448 5.5038C4.07506 7.11321 3.1709 9.29604 3.1709 11.5721V120.34C3.1709 121.467 3.39287 122.583 3.82415 123.624C4.25543 124.665 4.88757 125.611 5.68447 126.408C6.48137 127.205 7.42743 127.837 8.46863 128.268C9.50983 128.7 10.6258 128.922 11.7528 128.922H54.0215C55.1484 128.922 56.2644 128.7 57.3056 128.268C58.3468 127.837 59.2929 127.205 60.0898 126.408C60.8867 125.611 61.5188 124.665 61.9501 123.624C62.3814 122.583 62.6033 121.467 62.6033 120.34V11.5721C62.6033 10.4451 62.3814 9.32915 61.9501 8.28795C61.5188 7.24675 60.8867 6.30069 60.0898 5.5038C59.2929 4.7069 58.3468 4.07476 57.3056 3.64349C56.2644 3.21221 55.1484 2.99023 54.0215 2.99024V2.99023Z" fill="white"/>
<path d="M88.6732 52.1965C88.6732 56.1923 84.9786 55.5879 80.421 55.5879C75.8634 55.5879 72.1687 56.1923 72.1687 52.1965C72.1687 48.2008 73.9735 41.1182 80.421 41.1182C87.0906 41.1182 88.6732 48.2008 88.6732 52.1965Z" fill="#303030"/>
<path d="M57.1353 44.9308C56.988 45.2288 56.9078 45.5554 56.9005 45.8877C56.8931 46.22 56.9586 46.5499 57.0925 46.8541C57.2264 47.1583 57.4254 47.4294 57.6754 47.6484C57.9255 47.8674 58.2205 48.0289 58.5397 48.1216L58.9555 56.1901L62.3368 53.7015L61.4235 46.421C61.5436 45.8744 61.4591 45.3028 61.1859 44.8144C60.9127 44.3261 60.4699 43.9549 59.9413 43.7712C59.4127 43.5875 58.8351 43.6041 58.3179 43.8178C57.8008 44.0316 57.38 44.4276 57.1353 44.9308V44.9308Z" fill="#A5A5A5"/>
<path d="M94.2033 90.5286C94.3868 90.2514 94.5073 89.9374 94.5563 89.6087C94.6053 89.28 94.5816 88.9445 94.4869 88.6259C94.3923 88.3073 94.2289 88.0133 94.0083 87.7647C93.7877 87.5161 93.5153 87.3188 93.2102 87.1869L93.8097 79.1299L90.1429 81.1748L90.1359 88.5123C89.9481 89.0395 89.9603 89.6172 90.1701 90.136C90.3799 90.6548 90.7727 91.0786 91.274 91.3271C91.7754 91.5757 92.3505 91.6316 92.8904 91.4845C93.4303 91.3373 93.8975 90.9972 94.2033 90.5286Z" fill="#A5A5A5"/>
<path d="M77.3169 129.313H80.0886L81.4072 118.622L77.3164 118.622L77.3169 129.313Z" fill="#A5A5A5"/>
<path d="M76.6099 128.408L82.0685 128.408H82.0687C82.5256 128.408 82.9779 128.498 83.4 128.673C83.8221 128.848 84.2055 129.104 84.5286 129.427C84.8516 129.75 85.1079 130.134 85.2827 130.556C85.4575 130.978 85.5475 131.43 85.5475 131.887V132L76.61 132L76.6099 128.408Z" fill="#303030"/>
<path d="M94.9518 129.313H97.7237L99.0423 118.622L94.9514 118.622L94.9518 129.313Z" fill="#A5A5A5"/>
<path d="M94.2449 128.408L99.7035 128.408H99.7037C100.161 128.408 100.613 128.498 101.035 128.673C101.457 128.848 101.841 129.104 102.164 129.427C102.487 129.75 102.743 130.134 102.918 130.556C103.092 130.978 103.182 131.43 103.182 131.887V132L94.245 132L94.2449 128.408Z" fill="#303030"/>
<path d="M93.3697 86.0892L93.2493 86.0674C92.2397 85.8846 91.2178 85.6998 90.3194 85.5066L90.2304 85.4874L90.2301 85.3964C90.2147 81.2983 90.1992 77.2009 90.1766 73.0663C88.0307 68.741 87.1285 63.9046 87.5707 59.0965L87.5758 59.0457L87.6175 59.0159C88.0085 58.7443 88.4649 58.5818 88.9396 58.5451C89.4143 58.5084 89.8902 58.5988 90.3184 58.807C90.7373 59.036 91.0953 59.3618 91.3627 59.7572C91.6301 60.1527 91.7991 60.6063 91.8556 61.0803C92.6726 65.5332 93.5185 70.1444 94.4619 74.6883L94.4654 74.7048L94.4637 74.7218C94.1142 78.4276 93.7529 82.2596 93.3819 85.9674L93.3697 86.0892Z" fill="#E4E4E4"/>
<path d="M91.5628 125.502L91.5408 125.398C90.2441 119.265 88.9924 114.27 87.7819 109.44C86.3312 103.651 84.9565 98.1656 83.5687 91.0672C83.7593 100.019 84.202 106.45 84.7108 113.842C84.9406 117.18 85.1782 120.632 85.4192 124.661L85.4266 124.784L85.3035 124.781C80.9655 124.67 76.5209 124.402 72.2226 124.143L72.1089 124.136L72.1166 124.022C72.9304 112.027 73.1854 104.233 73.3716 98.5418C73.7644 86.5345 73.8248 84.689 78.2975 74.5271C78.467 74.1416 79.4785 73.0025 80.5905 73.1761L89.3904 74.5456L89.4058 74.6231C89.6542 75.8739 90.8865 79.6693 92.592 84.9223C96.2379 96.152 101.748 113.122 103.469 123.238L103.488 123.353L103.373 123.369C100.873 123.724 99.074 124.094 97.3339 124.452C95.6876 124.791 93.9853 125.141 91.6681 125.486L91.5628 125.502Z" fill="#606060"/>
<path d="M83.9146 77.7203C81.5658 77.7205 79.2443 76.9055 77.5801 75.3187C77.32 75.1674 77.1001 74.9558 76.9388 74.7017C76.7776 74.4477 76.6797 74.1586 76.6535 73.8588C76.6108 73.5842 76.6287 73.3036 76.706 73.0366C76.7833 72.7697 76.9181 72.5229 77.1009 72.3135C75.4692 70.3386 73.7846 68.2974 72.172 66.2188L72.1274 66.1614L72.179 66.063C73.2341 64.0471 74.3251 61.9629 75.3728 59.9033C75.4457 59.7238 75.5657 59.5673 75.7202 59.4504C75.8747 59.3334 76.0579 59.2603 76.2504 59.2388C76.4177 59.2071 76.5897 59.21 76.7558 59.2471C76.9219 59.2842 77.0788 59.3549 77.2167 59.4547L77.2188 59.4046C77.2625 58.362 77.3064 57.3194 77.3513 56.3312L77.3561 56.2256L77.4618 56.2232C79.4763 56.1788 81.5593 56.1327 83.6054 56.0115L83.6833 56.0068L84.6981 58.2706C86.3464 58.1105 88.0049 58.4472 89.4604 59.2372L89.5274 59.273L89.5196 59.3485C89.1114 63.239 89.2002 67.1657 89.7838 71.0338C89.7521 72.7999 89.718 74.6051 89.3597 76.044L89.3493 76.086L89.3134 76.1102C87.7139 77.1717 85.8342 77.7323 83.9146 77.7203Z" fill="#E4E4E4"/>
<path d="M75.2693 67.8996L75.1341 67.8376C73.556 67.0458 71.9729 66.1676 70.4419 65.3182L70.2304 65.2769C66.1993 64.4677 63.9789 64.0221 60.3422 61.8895L60.3142 61.873L60.2992 61.8443C58.4783 58.3657 57.9703 55.325 58.4251 50.6252L58.4342 50.531L58.5285 50.5234C58.9227 50.4914 59.5653 50.47 60.1866 50.4493C60.7911 50.4292 61.4163 50.4082 61.7995 50.3782L61.8884 50.3711L61.9159 50.4559C62.3924 51.9274 62.7972 53.3003 63.2259 54.7538C63.6664 56.2479 64.1217 57.7921 64.6763 59.5078C66.707 60.0914 72.1508 59.917 73.8434 59.6865C74.8202 59.5862 75.8069 60.0377 76.4879 60.8889L76.5193 60.9282L76.5112 60.9779C76.1386 63.252 75.7107 65.5396 75.2969 67.7519L75.2693 67.8996Z" fill="#E4E4E4"/>
<path d="M85.192 52.478C86.663 49.787 85.674 46.413 82.983 44.942C80.292 43.471 76.918 44.46 75.447 47.151C73.976 49.842 74.9649 53.2159 77.6559 54.687C80.3469 56.158 83.7209 55.169 85.192 52.478Z" fill="#A5A5A5"/>
<path d="M73.9773 49.4838H76.1736L77.1426 46.7707L77.3363 49.4838H78.386L78.9513 47.9012L79.0643 49.4838H86.8644C86.8644 47.9248 86.2451 46.4296 85.1427 45.3272C84.0403 44.2248 82.5451 43.6055 80.9861 43.6055H79.8556C78.2966 43.6055 76.8014 44.2248 75.699 45.3272C74.5966 46.4296 73.9773 47.9248 73.9773 49.4838Z" fill="#303030"/>
<ellipse cx="32.8982" cy="40.0569" rx="11.147" ry="11.2376" fill="#606060"/>
<rect x="16.4949" y="20.6631" width="32.8066" height="3.44378" rx="1.72189" fill="#D9D9D9"/>
<rect x="23.2012" y="56.0068" width="19.5752" height="3.44378" rx="1.72189" fill="#D9D9D9"/>
<rect x="7.97607" y="73.7695" width="49.8442" height="3.44378" rx="1.72189" fill="#D9D9D9"/>
<rect x="7.97607" y="83.376" width="49.8442" height="10.3313" rx="5" fill="#D9D9D9"/>
<rect x="23.2012" y="104.764" width="19.5752" height="10.3313" rx="5" fill="#D9D9D9"/>
</svg>
