<svg width="338" height="299" viewBox="0 0 338 299" fill="none" xmlns="http://www.w3.org/2000/svg">
<path d="M187 100.092C186.981 110.377 183.914 120.425 178.185 128.966C172.456 137.507 164.323 144.158 154.814 148.077C145.305 151.996 134.848 153.007 124.765 150.983C114.681 148.958 105.425 143.989 98.1653 136.704C90.9059 129.419 85.9698 120.145 83.9813 110.054C81.9927 99.9637 83.0411 89.5101 86.9936 80.0153C90.9462 70.5205 97.6256 62.4111 106.187 56.7124C114.748 51.0138 124.807 47.9818 135.092 48.0001C141.926 47.9945 148.693 49.3394 155.005 51.9575C161.318 54.5757 167.05 58.4155 171.874 63.2562C176.698 68.097 180.517 73.8432 183.113 80.1648C185.708 86.4863 187.029 93.2585 187 100.092Z" fill="#F2F2F2"/>
<path d="M277.945 98L283 88.2763C278.467 82.7619 263.594 76.0739 263.594 76.0739L243.464 57.6168C243.25 56.7933 242.824 56.0413 242.229 55.4363C241.634 54.8314 240.892 54.3949 240.077 54.1709C239.261 53.9468 238.402 53.943 237.585 54.16C236.768 54.3769 236.022 54.8069 235.422 55.4066C234.822 56.0063 234.39 56.7546 234.168 57.5762C233.947 58.3977 233.944 59.2636 234.16 60.0865C234.377 60.9095 234.804 61.6605 235.4 62.264C235.996 62.8675 236.74 63.3022 237.556 63.5243L259.303 89.7985L277.945 98Z" fill="#9E616A"/>
<path d="M276 98.442L283.439 100.801C288.848 102.517 294.677 102.388 300.004 100.434C301.616 99.8363 303.027 98.8015 304.079 97.4466C305.131 96.0918 305.782 94.4707 305.958 92.7668C306.181 90.4553 305.514 88.1459 304.093 86.3054C302.671 84.4648 300.602 83.2306 298.302 82.8522C291.326 81.7102 282.338 81.147 279.131 84.9483L279.099 84.9868L276 98.442Z" fill="#EA4335"/>
<path d="M206.5 117C225.002 117 240 101.778 240 83C240 64.2223 225.002 49 206.5 49C187.998 49 173 64.2223 173 83C173 101.778 187.998 117 206.5 117Z" fill="white"/>
<path d="M192.464 70.0679C192.007 72.493 191.257 74.8553 190.231 77.1044C184.356 89.3773 201.087 85.377 207.066 85.377C213.604 85.377 219.858 88.7715 218.903 73.6885C218.495 67.2457 213.603 62 207.066 62C201.482 62 193.632 64.4508 192.464 70.0679Z" fill="#2F2E41"/>
<path d="M206.5 86C211.747 86 216 81.5229 216 76C216 70.4772 211.747 66 206.5 66C201.253 66 197 70.4772 197 76C197 81.5229 201.253 86 206.5 86Z" fill="#FFB6B6"/>
<path d="M200.27 65.6638C201.953 64.6022 203.881 64.0279 205.852 64.001C207.824 63.9741 209.765 64.4956 211.475 65.5109C213.185 66.5262 214.599 67.9981 215.571 69.7727C216.542 71.5472 217.035 73.5592 216.998 75.5983C212.104 76.8697 206.962 77.8426 201.742 75.9024L200.51 72.7813L199.783 75.9047C198.193 76.5769 196.6 77.1456 195.006 75.8982C194.941 73.8649 195.393 71.8495 196.317 70.0535C197.241 68.2575 198.604 66.7438 200.27 65.6638Z" fill="#2F2E41"/>
<path d="M233 105.41C227.056 112.135 218.691 116.266 209.711 116.911C200.73 117.557 191.855 114.665 185 108.86L187.943 100.695C188.608 99.245 189.657 98.0022 190.979 97.1C192.3 96.1978 193.843 95.6703 195.443 95.5739L197.315 95.4596L201.779 91.6315C201.779 91.6315 213.807 91.2045 213.629 91L220.915 95.3574L220.909 95.3273L223.773 95.5017C225.373 95.5977 226.916 96.1251 228.238 97.0273C229.559 97.9295 230.608 99.1726 231.273 100.623L233 105.41Z" fill="#4285F4"/>
<path d="M202.327 268.527L201.498 256.952C196.072 254.226 190.065 252.873 184 253.009C192.533 259.636 191.849 272.879 197.759 281.943C199.624 284.755 202.094 287.11 204.988 288.833C207.882 290.556 211.125 291.603 214.476 291.896L221.577 296C222.39 290.606 222.028 285.099 220.518 279.859C219.008 274.619 216.385 269.77 212.83 265.646C210.813 263.352 208.516 261.323 205.995 259.606C204.442 264.083 202.327 268.527 202.327 268.527Z" fill="#F2F2F2"/>
<path d="M44.6672 108.138L43.6427 93.8705C36.931 90.5116 29.5017 88.8436 22 89.0115C32.5539 97.1787 31.7085 113.502 39.0176 124.674C41.324 128.14 44.3799 131.043 47.9591 133.167C51.5383 135.29 55.5489 136.58 59.6937 136.941L68.4771 142C69.4819 135.352 69.035 128.564 67.1673 122.105C65.2996 115.646 62.0555 109.67 57.6585 104.587C55.1635 101.76 52.3229 99.2586 49.2037 97.1423C47.2838 102.661 44.6672 108.138 44.6672 108.138Z" fill="#F2F2F2"/>
<path d="M254.999 292L249.579 292L247 268H255L254.999 292Z" fill="#9E616A"/>
<path d="M257 298L237 297.999V297.765C237 295.855 237.82 294.024 239.28 292.673C240.74 291.323 242.72 290.564 244.784 290.564H244.785L248.438 288L255.254 290.564L257 290.564L257 298Z" fill="#2F2E41"/>
<path d="M307.999 292L301.901 292L299 268H308L307.999 292Z" fill="#9E616A"/>
<path d="M309 298L291 297.999V297.765C291 295.855 291.738 294.024 293.052 292.673C294.366 291.323 296.148 290.564 298.006 290.564H298.006L301.294 288L307.429 290.564L309 290.564L309 298Z" fill="#2F2E41"/>
<path d="M300.025 165.297L305.144 214.571C305.144 214.571 311.96 263.91 310.68 270.717C309.4 277.525 311 278.497 311 278.497L299.321 277.655C299.321 277.655 299.641 273.44 297.721 271.495C295.801 269.55 296.761 263.715 296.761 263.715L274.106 183.451L260.347 225.593C260.347 225.593 258.107 271.951 257.787 272.599C257.467 273.247 256.507 282 256.507 282H244.667C244.667 282 246.267 276.813 244.027 275.192C241.787 273.571 239.868 274.868 241.787 271.951C243.707 269.033 244.347 265.467 243.707 263.846C243.067 262.225 243.067 255.742 243.067 255.742C243.067 255.742 244.027 168.214 249.467 165.297C254.907 162.379 300.025 165.297 300.025 165.297Z" fill="#2F2E41"/>
<path d="M275 70C281.627 70 287 63.9558 287 56.5C287 49.0442 281.627 43 275 43C268.373 43 263 49.0442 263 56.5C263 63.9558 268.373 70 275 70Z" fill="#9E616A"/>
<path d="M303.751 171.451C279.774 176.406 248 167.888 248 167.888L256.476 131.122L253.463 92.6469C253.095 87.9417 255.773 83.5313 259.939 81.9684L265.692 79.8122L270.448 73L284.031 73.4459L289.461 80.5977L293.746 82.8725L303.036 87.8027L303.077 87.8231V87.8435L300.161 116.14L298.403 133.201C298.403 133.201 303.743 152.389 302.647 154.934C301.552 157.475 302.504 156.248 302.77 157.606C303.036 158.964 303.85 159.05 303.972 161.726C304.099 164.398 303.751 171.451 303.751 171.451Z" fill="#EA4335"/>
<path d="M274.562 67.983C276.711 67.9603 278.854 67.7482 280.968 67.3489C283.061 66.8511 287.679 63.1648 288.937 60.9871C289.872 59.3691 290.433 56.8664 290.74 55.0519C291.153 52.6506 291.073 50.1864 290.506 47.8188C289.938 45.4513 288.895 43.2333 287.444 41.3083C286.885 40.5019 286.125 39.8665 285.245 39.4694C285.167 39.4403 285.087 39.4149 285.006 39.3934C283.73 39.0829 282.573 38.3858 281.684 37.3915C281.511 37.1902 281.325 37.002 281.126 36.8284C280.128 36.0036 278.955 35.4343 277.704 35.1671C275.682 34.6657 272.789 35.294 269.106 37.0361C267.256 37.9113 265.203 37.6672 263.62 37.3566C263.531 37.3414 263.44 37.3504 263.356 37.3827C263.272 37.4151 263.197 37.4697 263.139 37.5411C262.486 38.2079 261.612 38.5948 260.694 38.6238C260.132 38.6643 259.562 39.4842 258.875 40.552C258.719 40.7943 258.537 41.0772 258.405 41.2498L258.378 40.9256L258.069 41.2963C257.583 41.8789 257.248 42.5789 257.095 43.3313C256.941 44.0836 256.975 44.8638 257.192 45.5992C257.409 46.3346 257.803 47.0012 258.338 47.537C258.872 48.0728 259.528 48.4604 260.247 48.6636C260.816 48.804 261.399 48.8839 261.984 48.9022C262.339 48.9257 262.706 48.9499 263.059 49.0035C264.191 49.2116 265.253 49.7194 266.138 50.4774C267.024 51.2353 267.704 52.2174 268.113 53.3278C268.209 53.5845 268.362 53.8148 268.558 54.001C268.754 54.1872 268.989 54.3243 269.245 54.4018C269.501 54.4793 269.771 54.4951 270.033 54.4479C270.296 54.4007 270.545 54.2919 270.76 54.1297C271.118 53.826 271.543 53.6162 271.997 53.5183C272.45 53.4205 272.92 53.4374 273.367 53.5676C273.755 53.777 274.061 54.1177 274.235 54.5327C274.444 54.9945 274.783 55.3814 275.206 55.6439C276.651 56.3648 276.833 59.7241 276.391 62.5403C275.965 65.2549 275.039 67.2352 274.138 67.3559C273.444 67.4487 273.366 67.5018 273.319 67.6301L273.276 67.745L273.357 67.8492C273.745 67.9828 274.156 68.0284 274.562 67.983Z" fill="#2F2E41"/>
<path d="M206 117C199.275 117 192.702 115.006 187.111 111.27C181.519 107.534 177.162 102.224 174.588 96.0112C172.015 89.7986 171.341 82.9623 172.653 76.3669C173.965 69.7716 177.203 63.7134 181.958 58.9584C186.713 54.2034 192.772 50.9652 199.367 49.6533C205.962 48.3414 212.799 49.0147 219.011 51.5881C225.224 54.1615 230.534 58.5194 234.27 64.1106C238.006 69.7019 240 76.2754 240 83C239.99 92.0142 236.404 100.656 230.03 107.03C223.656 113.404 215.014 116.99 206 117ZM206 49.8413C199.442 49.8413 193.031 51.786 187.578 55.4296C182.125 59.0731 177.875 64.2518 175.365 70.3107C172.856 76.3697 172.199 83.0368 173.478 89.4689C174.758 95.9011 177.916 101.809 182.553 106.447C187.191 111.084 193.099 114.242 199.531 115.522C205.963 116.801 212.63 116.144 218.689 113.635C224.748 111.125 229.927 106.875 233.57 101.422C237.214 95.9691 239.159 89.5582 239.159 83C239.149 74.2088 235.652 65.7806 229.436 59.5643C223.219 53.348 214.791 49.8513 206 49.8413Z" fill="#3F3D56"/>
<path d="M107.5 68C126.002 68 141 52.7777 141 34C141 15.2223 126.002 0 107.5 0C88.9985 0 74 15.2223 74 34C74 52.7777 88.9985 68 107.5 68Z" fill="white"/>
<path d="M109 38C115.075 38 120 33.0751 120 27C120 20.9249 115.075 16 109 16C102.925 16 98 20.9249 98 27C98 33.0751 102.925 38 109 38Z" fill="#FFB8B8"/>
<path d="M118.716 19.4803C118.716 19.4803 121.603 13.9717 115.251 13.4709C115.251 13.4709 109.835 8.56833 104.316 12.5746C104.316 12.5746 101.305 12.5746 99.6585 15.9748C99.6585 15.9748 97.2905 15.0786 96.7701 17.4772C96.7701 17.4772 95.0374 22.485 96.7701 26.9921C98.5028 31.4992 99.0784 32 99.0784 32C99.0784 32 97.8626 26.407 104.793 25.9062C111.723 25.4054 118.081 21.0725 118.659 26.5812C119.236 32.0898 119.871 29.6014 119.871 29.6014C119.871 29.6014 125.357 21.7339 118.716 19.4803Z" fill="#2F2E41"/>
<path d="M133 56.4103C127.18 63.135 118.989 67.2659 110.196 67.9112C101.402 68.5566 92.7118 65.6646 86 59.8595L88.8814 51.6951C89.5326 50.245 90.5602 49.0022 91.854 48.1C93.1478 47.1978 94.659 46.6703 96.2256 46.5739L98.0587 46.4596L102.43 42.6315C102.43 42.6315 114.207 42.2045 114.032 42L121.166 46.3574L121.16 46.3273L123.965 46.5017C125.532 46.5977 127.043 47.1251 128.337 48.0273C129.631 48.9295 130.658 50.1726 131.309 51.6229L133 56.4103Z" fill="#3BB25E"/>
<path d="M108 68C101.275 68 94.7019 66.0059 89.1106 62.27C83.5194 58.534 79.1615 53.2239 76.5881 47.0112C74.0147 40.7986 73.3414 33.9623 74.6533 27.3669C75.9652 20.7716 79.2034 14.7134 83.9584 9.95838C88.7134 5.2034 94.7716 1.96521 101.367 0.653317C107.962 -0.658581 114.799 0.0147294 121.011 2.58811C127.224 5.16149 132.534 9.51935 136.27 15.1106C140.006 20.7019 142 27.2754 142 34C141.99 43.0142 138.404 51.6563 132.03 58.0303C125.656 64.4044 117.014 67.9898 108 68ZM108 0.841311C101.442 0.841309 95.031 2.78603 89.578 6.42955C84.1251 10.0731 79.8751 15.2518 77.3654 21.3107C74.8557 27.3697 74.199 34.0368 75.4784 40.4689C76.7579 46.9011 79.9159 52.8094 84.5533 57.4467C89.1906 62.0841 95.0989 65.2421 101.531 66.5216C107.963 67.801 114.63 67.1443 120.689 64.6346C126.748 62.1249 131.927 57.8749 135.57 52.422C139.214 46.9691 141.159 40.5582 141.159 34C141.149 25.2088 137.652 16.7806 131.436 10.5643C125.219 4.34798 116.791 0.851283 108 0.841311Z" fill="#3F3D56"/>
<path d="M75 186C98.196 186 117 166.972 117 143.5C117 120.028 98.196 101 75 101C51.804 101 33 120.028 33 143.5C33 166.972 51.804 186 75 186Z" fill="white"/>
<path d="M55.7202 129.072C57.4305 123.536 61.3199 118.458 66.6988 116.587C72.078 114.715 79.9545 117.566 83.9985 121.66C91.3957 129.148 93.2009 154.871 88.1187 163C87.1078 162.946 83.6197 162.905 82.5966 162.867L81.1493 157.967V162.818C79.5194 162.767 77.8766 162.732 76.2212 162.712C70.6707 162.642 65.3631 160.389 61.4141 156.427C57.4652 152.465 55.1825 147.102 55.046 141.466C54.9136 136.074 55.0461 131.254 55.7202 129.072Z" fill="#2F2E41"/>
<path d="M74 147C80.6274 147 86 141.851 86 135.5C86 129.149 80.6274 124 74 124C67.3726 124 62 129.149 62 135.5C62 141.851 67.3726 147 74 147Z" fill="#9E616A"/>
<path d="M64 125.727L77.6279 119C80.4141 120.238 82.8136 122.187 84.5777 124.647C86.3417 127.107 87.4061 129.987 87.6603 132.989L88 137L82.2933 135.568L81.6681 130.439L80.699 135.168L78.0654 134.507L78.0904 126.545L75.4552 134.502L66.0491 132.372L64 125.727Z" fill="#2F2E41"/>
<path d="M106 171.29C98.8178 179.825 88.71 185.068 77.8586 185.887C67.0072 186.706 56.2826 183.036 48 175.668L51.5558 165.305C52.3593 163.465 53.6274 161.887 55.224 160.742C56.8207 159.597 58.6856 158.928 60.6189 158.805L62.881 158.66L68.275 153.802C68.275 153.802 82.8088 153.26 82.5932 153L91.3968 158.531L91.3895 158.492L94.8502 158.714C96.7836 158.836 98.6488 159.505 100.245 160.65C101.842 161.795 103.11 163.373 103.913 165.214L106 171.29Z" fill="#FDC504"/>
<path d="M75 186C66.6932 186 58.5729 183.507 51.6661 178.837C44.7592 174.168 39.376 167.53 36.1971 159.764C33.0182 151.998 32.1865 143.453 33.807 135.209C35.4276 126.964 39.4277 119.392 45.3015 113.448C51.1753 107.504 58.659 103.457 66.8062 101.817C74.9534 100.177 83.3982 101.018 91.0727 104.235C98.7472 107.452 105.307 112.899 109.922 119.888C114.537 126.877 117 135.094 117 143.5C116.987 154.768 112.558 165.57 104.685 173.538C96.8107 181.505 86.1352 185.987 75 186ZM75 102.052C66.8987 102.052 58.9794 104.483 52.2434 109.037C45.5075 113.591 40.2574 120.065 37.1572 127.638C34.057 135.212 33.2458 143.546 34.8263 151.586C36.4068 159.626 40.3079 167.012 46.0364 172.808C51.7648 178.605 59.0633 182.553 67.009 184.152C74.9546 185.751 83.1904 184.93 90.675 181.793C98.1596 178.656 104.557 173.344 109.058 166.527C113.558 159.711 115.961 151.698 115.961 143.5C115.948 132.511 111.629 121.976 103.95 114.205C96.2711 106.435 85.8597 102.064 75 102.052V102.052Z" fill="#3F3D56"/>
<path d="M258 109.983L252.519 100C245.42 100.947 231.753 110.468 231.753 110.468L205.316 118.066C204.505 117.794 203.641 117.751 202.81 117.942C201.978 118.133 201.21 118.55 200.581 119.153C199.952 119.755 199.485 120.52 199.227 121.372C198.97 122.224 198.93 123.132 199.113 124.005C199.296 124.878 199.694 125.684 200.268 126.344C200.842 127.004 201.571 127.493 202.383 127.763C203.194 128.033 204.059 128.073 204.889 127.88C205.72 127.687 206.488 127.268 207.116 126.664L241.022 122.019L258 109.983Z" fill="#9E616A"/>
<path d="M255.901 112L267.181 101.815L268.822 93.6167C269.139 92.0059 269.031 90.3318 268.512 88.7835C267.992 87.2352 267.081 85.8743 265.882 84.8548C264.248 83.4846 262.192 82.8345 260.13 83.036C258.068 83.2375 256.154 84.2756 254.775 85.9403C250.596 90.9927 245.895 97.9704 247.232 102.521L247.245 102.567L255.901 112Z" fill="#EA4335"/>
<path d="M137.619 229H84.3814C82.9547 228.998 81.5868 228.438 80.578 227.442C79.5691 226.446 79.0016 225.095 79 223.687V191.313C79.0016 189.905 79.5691 188.554 80.578 187.558C81.5868 186.562 82.9547 186.002 84.3814 186H137.619C139.045 186.002 140.413 186.562 141.422 187.558C142.431 188.554 142.998 189.905 143 191.313V223.687C142.998 225.095 142.431 226.446 141.422 227.442C140.413 228.438 139.045 228.998 137.619 229Z" fill="#E6E6E6"/>
<path d="M116.885 225H88.965C87.6487 224.999 86.3867 224.484 85.4559 223.569C84.5251 222.654 84.0015 221.413 84 220.119V195.881C84.0015 194.587 84.5251 193.346 85.4559 192.431C86.3867 191.516 87.6487 191.001 88.965 191H134.035C135.352 191.001 136.614 191.516 137.544 192.431C138.475 193.346 138.999 194.587 139 195.881V203.257C138.993 209.022 136.661 214.548 132.515 218.625C128.369 222.701 122.748 224.994 116.885 225Z" fill="white"/>
<path d="M129.806 204H93.194C92.8774 204 92.5737 203.895 92.3497 203.707C92.1258 203.52 92 203.265 92 203C92 202.735 92.1258 202.48 92.3497 202.293C92.5737 202.105 92.8774 202 93.194 202H129.806C130.123 202 130.426 202.105 130.65 202.293C130.874 202.48 131 202.735 131 203C131 203.265 130.874 203.52 130.65 203.707C130.426 203.895 130.123 204 129.806 204Z" fill="#4285F4"/>
<path d="M98.8229 208H93.1771C92.8649 208 92.5655 207.842 92.3448 207.561C92.124 207.279 92 206.898 92 206.5C92 206.102 92.124 205.721 92.3448 205.439C92.5655 205.158 92.8649 205 93.1771 205H98.8229C99.1351 205 99.4345 205.158 99.6552 205.439C99.876 205.721 100 206.102 100 206.5C100 206.898 99.876 207.279 99.6552 207.561C99.4345 207.842 99.1351 208 98.8229 208Z" fill="#4285F4"/>
<path d="M108.825 213H93.175C92.8632 212.999 92.5643 212.841 92.344 212.56C92.1237 212.278 92 211.897 92 211.5C92 211.103 92.1237 210.722 92.344 210.44C92.5643 210.159 92.8632 210.001 93.175 210H108.825C109.137 210.001 109.436 210.159 109.656 210.44C109.876 210.722 110 211.103 110 211.5C110 211.897 109.876 212.278 109.656 212.56C109.436 212.841 109.137 212.999 108.825 213Z" fill="#4285F4"/>
<path d="M77 196C83.0751 196 88 190.851 88 184.5C88 178.149 83.0751 173 77 173C70.9249 173 66 178.149 66 184.5C66 190.851 70.9249 196 77 196Z" fill="#3F3D56"/>
<path d="M190.712 37H148.288C147.151 36.9987 146.061 36.5426 145.257 35.7319C144.453 34.9211 144.001 33.8219 144 32.6753V6.32474C144.001 5.17815 144.453 4.07889 145.257 3.26813C146.061 2.45736 147.151 2.0013 148.288 2H190.712C191.849 2.0013 192.939 2.45735 193.743 3.26812C194.546 4.07889 194.999 5.17814 195 6.32474V32.6752C194.999 33.8218 194.546 34.9211 193.743 35.7319C192.939 36.5426 191.849 36.9987 190.712 37Z" fill="#E6E6E6"/>
<path d="M173.906 33H151.062C149.985 32.9988 148.953 32.5749 148.191 31.8213C147.43 31.0677 147.001 30.0459 147 28.9802V9.01984C147.001 7.95406 147.43 6.93228 148.191 6.17867C148.953 5.42507 149.985 5.00118 151.062 5H187.938C189.015 5.00118 190.047 5.42508 190.809 6.17869C191.57 6.9323 191.999 7.95408 192 9.01984V15.0942C191.995 19.8415 190.086 24.3928 186.694 27.7496C183.302 31.1065 178.703 32.9947 173.906 33Z" fill="white"/>
<path d="M184.051 16H154.949C154.697 16 154.456 15.8946 154.278 15.7071C154.1 15.5196 154 15.2652 154 15C154 14.7348 154.1 14.4804 154.278 14.2929C154.456 14.1054 154.697 14 154.949 14H184.051C184.303 14 184.544 14.1054 184.722 14.2929C184.9 14.4804 185 14.7348 185 15C185 15.2652 184.9 15.5196 184.722 15.7071C184.544 15.8946 184.303 16 184.051 16Z" fill="#4285F4"/>
<path d="M159.117 20H154.883C154.649 20 154.424 19.8946 154.259 19.7071C154.093 19.5196 154 19.2652 154 19C154 18.7348 154.093 18.4804 154.259 18.2929C154.424 18.1054 154.649 18 154.883 18H159.117C159.351 18 159.576 18.1054 159.741 18.2929C159.907 18.4804 160 18.7348 160 19C160 19.2652 159.907 19.5196 159.741 19.7071C159.576 19.8946 159.351 20 159.117 20Z" fill="#4285F4"/>
<path d="M168.019 24H154.979C154.719 23.9994 154.47 23.8938 154.287 23.7064C154.103 23.5189 154 23.2649 154 23C154 22.7351 154.103 22.4811 154.287 22.2936C154.47 22.1062 154.719 22.0006 154.979 22H168.019C168.279 22 168.529 22.1054 168.713 22.2929C168.897 22.4804 169 22.7348 169 23C169 23.2652 168.897 23.5196 168.713 23.7071C168.529 23.8946 168.279 24 168.019 24Z" fill="#4285F4"/>
<path d="M142 42C146.971 42 151 37.9706 151 33C151 28.0294 146.971 24 142 24C137.029 24 133 28.0294 133 33C133 37.9706 137.029 42 142 42Z" fill="#3F3D56"/>
<path d="M0 298L338 298" stroke="#E6E6E6" stroke-width="2"/>
</svg>
