<svg width="352" height="296" viewBox="0 0 352 296" fill="none" xmlns="http://www.w3.org/2000/svg">
<path d="M64 293.944C63.9944 293.961 63.9944 293.983 63.9888 294H27.5316C26.8453 293.569 26.1703 293.121 25.5065 292.668C21.4075 289.904 17.6221 286.706 14.2166 283.129C10.3128 278.99 7.08761 274.265 4.65933 269.128C-0.150254 258.918 -1.62969 247.302 2.09422 236.806C2.0942 236.805 2.09433 236.805 2.09461 236.804C2.09488 236.803 2.0953 236.803 2.09582 236.802C2.09635 236.802 2.09698 236.801 2.09767 236.801C2.09836 236.801 2.0991 236.8 2.09984 236.8C2.18985 236.537 2.2911 236.269 2.39236 236C2.54424 236.263 2.69049 236.521 2.848 236.778L2.85362 236.784C4.9438 240.284 7.31408 243.61 9.94143 246.731V246.737C10.144 246.978 10.3464 247.218 10.5546 247.453C10.5546 247.454 10.5547 247.455 10.555 247.456C10.5553 247.456 10.5557 247.457 10.5562 247.457C10.5567 247.458 10.5573 247.458 10.558 247.459C10.5587 247.459 10.5595 247.459 10.5602 247.459C16.9398 254.881 24.6473 261.061 33.2918 265.686C33.3199 265.703 33.3424 265.714 33.3706 265.731C33.3994 265.748 33.4295 265.763 33.4606 265.775C33.4662 265.781 33.4718 265.781 33.4774 265.786C35.3956 266.817 37.3645 267.757 39.3671 268.608V268.613C40.9421 269.291 42.5453 269.907 44.1598 270.478C47.6024 271.681 51.3151 272.778 54.6115 274.363C57.8179 275.902 60.6417 277.9 62.4812 280.906C62.6218 281.153 62.7624 281.393 62.8918 281.64L61.8174 289.04L63.9606 289.029L63.7581 292.668L63.7019 293.72L64 293.944Z" fill="#F0F0F0"/>
<path d="M55 294H54.2296C54.1565 293.554 54.0834 293.114 53.999 292.674C53.7806 291.469 53.4838 290.279 53.1106 289.113C52.9419 288.589 52.7507 288.076 52.5313 287.569C51.2886 284.682 49.1517 282.147 45.9913 281.3C45.0713 281.058 44.1256 280.925 43.174 280.904C41.2901 280.826 39.3782 281.066 37.5056 281.166C37.0445 281.188 36.5777 281.205 36.1279 281.199H36.1166C33.6812 281.239 31.266 280.756 29.0367 279.784C26.2836 278.478 23.7767 276.713 21.625 274.568C20.2171 273.232 18.8789 271.826 17.6155 270.355V270.349C17.4468 270.165 17.2838 269.976 17.1207 269.781C14.1434 266.235 11.5411 262.396 9.35477 258.323C8.24012 256.265 7.23954 254.148 6.35748 251.982C6.34579 251.962 6.33636 251.942 6.32936 251.92C4.35595 247.144 2.94088 242.159 2.1118 237.063C2.11178 237.062 2.11192 237.062 2.11219 237.061C2.11247 237.06 2.11288 237.06 2.1134 237.059C2.11393 237.059 2.11456 237.058 2.11525 237.058C2.11594 237.058 2.11669 237.058 2.11743 237.058C2.07247 236.829 2.03872 236.595 2.00495 236.367C1.93185 235.893 2.69102 235.871 2.7585 236.344C2.79224 236.578 2.82597 236.801 2.86534 237.035L2.87096 237.041C3.66891 241.92 5.00789 246.697 6.86359 251.285V251.29C6.95921 251.525 7.05479 251.753 7.15039 251.982C9.79001 258.327 13.4036 264.229 17.863 269.48L17.8686 269.491C17.9136 269.547 17.9642 269.597 18.0148 269.653C18.017 269.655 18.0186 269.658 18.0195 269.66C18.0205 269.663 18.0208 269.666 18.0205 269.669C18.0261 269.664 18.0261 269.669 18.0261 269.669C19.0664 270.89 20.1574 272.06 21.2933 273.197C23.3937 275.396 25.8304 277.254 28.5138 278.703C30.7544 279.84 33.2336 280.44 35.7511 280.453C36.0042 280.453 36.2572 280.458 36.5103 280.453C36.7127 280.453 36.9151 280.447 37.1176 280.436C39.0239 280.347 40.9584 280.107 42.876 280.141C43.748 280.157 44.6171 280.247 45.474 280.408C46.8815 280.707 48.2093 281.298 49.3703 282.141C50.5313 282.984 51.4993 284.061 52.2108 285.301C52.9262 286.499 53.4962 287.777 53.9091 289.107C54.0497 289.542 54.1678 289.982 54.2859 290.428V290.434C54.4658 291.147 54.6233 291.871 54.7583 292.601C54.7647 292.625 54.7685 292.649 54.7695 292.674C54.8538 293.114 54.9269 293.56 55 294Z" fill="white"/>
<path d="M17.8468 270.285C15.9723 271.512 13.6625 272.114 11.33 271.982C8.99748 271.851 6.79412 270.994 5.11341 269.567C4.77447 269.277 5.27107 268.8 5.61047 269.09C7.17275 270.423 9.22527 271.22 11.3976 271.338C13.5699 271.457 15.7189 270.889 17.4568 269.737C17.8348 269.487 18.2227 270.037 17.8468 270.285Z" fill="white"/>
<path d="M36.0485 280.542C36.7777 275.66 35.7119 270.672 33.0636 266.572C32.8009 266.166 33.4203 265.763 33.6827 266.169C36.4309 270.441 37.5299 275.634 36.7603 280.712C36.6867 281.196 35.9752 281.023 36.0485 280.542Z" fill="white"/>
<path d="M7.16922 251.35C7.99453 250.976 8.71174 250.407 9.25644 249.694C9.80114 248.982 10.1563 248.148 10.2899 247.269C10.3571 246.817 11.0623 246.979 10.9956 247.427C10.8432 248.398 10.4499 249.319 9.84987 250.107C9.24984 250.896 8.46141 251.528 7.55345 251.95C7.47127 251.997 7.37395 252.012 7.28127 251.991C7.18859 251.97 7.10751 251.915 7.0545 251.838C7.00403 251.758 6.98777 251.663 7.00926 251.571C7.03074 251.48 7.08823 251.401 7.16924 251.35H7.16922Z" fill="white"/>
<path d="M69 269.3L68.6955 272.103L63.8514 272.031L63.1207 277.082L62.9933 277.95V277.956L62.4951 281.41L61.4377 288.716L63.547 288.705L63.3477 292.298L63.2923 293.337L63.5857 293.558L63.6521 293.613L63.6743 293.63C63.6134 293.751 63.5469 293.873 63.4805 294C63.5193 293.867 63.547 293.746 63.5746 293.613H49.5572C49.297 293.177 49.0424 292.74 48.7932 292.298C46.6301 288.539 44.7232 284.64 43.0855 280.625C42.9859 280.376 42.8807 280.128 42.7921 279.873V279.868C41.3359 276.195 40.1825 272.409 39.3431 268.549V268.543C38.8883 266.429 38.5428 264.293 38.3079 262.143C37.7078 256.587 37.9861 250.971 39.1328 245.502C39.142 245.475 39.1494 245.447 39.1549 245.419C41.3638 234.979 46.7504 225.329 55.2816 219.216C55.6359 218.951 56.0012 218.702 56.3722 218.459C56.3777 218.453 56.3777 218.453 56.3832 218.453C56.384 218.453 56.3847 218.453 56.3854 218.453C56.3861 218.453 56.3867 218.452 56.3872 218.452C56.3877 218.451 56.3881 218.45 56.3884 218.45C56.3887 218.449 56.3888 218.448 56.3888 218.448C56.6213 218.298 56.8483 218.149 57.0808 218C57.0476 218.298 57.0088 218.597 56.9811 218.895C56.5338 222.888 56.4153 226.91 56.6268 230.922V230.933C56.6324 231.242 56.649 231.552 56.6711 231.867V231.878C57.2747 241.517 59.6603 250.961 63.7075 259.733C63.7143 259.756 63.7236 259.779 63.7352 259.8C63.7463 259.827 63.7573 259.849 63.7684 259.877C65.2824 263.14 67.0308 266.289 69 269.3Z" fill="#F0F0F0"/>
<path d="M57.0317 218.598C56.9177 218.801 56.7991 219.011 56.6917 219.218C55.8422 220.772 55.0602 222.358 54.3457 223.979C53.069 226.84 52.0069 229.787 51.1679 232.796C51.0999 233.03 51.0329 233.27 50.9715 233.509C49.1984 240.074 48.4891 246.865 48.8689 253.64C48.8692 253.707 48.8742 253.768 48.8802 253.834C48.9707 255.415 49.1276 256.991 49.3508 258.561C49.6945 261.532 50.5193 264.431 51.7951 267.153C51.9737 267.509 52.1625 267.857 52.3607 268.192C52.8538 269.013 53.4261 269.787 54.07 270.504C54.5343 271.028 55.0346 271.521 55.5675 271.98C55.8888 272.261 56.2203 272.535 56.5668 272.796C56.7667 272.947 56.9723 273.097 57.1779 273.247C57.3478 273.358 57.513 273.476 57.6828 273.587C59.4489 274.756 61.3537 275.796 63 277.136L62.8707 278C61.2662 276.603 59.3295 275.546 57.5485 274.391C56.4325 273.677 55.3876 272.864 54.4274 271.963C54.3014 271.838 54.1699 271.715 54.0485 271.585C53.3987 270.937 52.8119 270.233 52.2954 269.481C52.0325 269.106 51.7845 268.718 51.5505 268.31C50.1365 265.659 49.1983 262.795 48.7758 259.84C48.4594 257.955 48.2414 256.056 48.1225 254.15C48.1016 253.902 48.0872 253.659 48.0775 253.409C47.8547 248.861 48.1125 244.304 48.8467 239.807C49.7737 234.103 51.454 228.537 53.8463 223.247C54.5296 221.732 55.2746 220.241 56.0816 218.773C56.1843 218.571 56.2936 218.375 56.4076 218.171C56.6392 217.753 57.2633 218.18 57.0317 218.598Z" fill="white"/>
<path d="M48.6154 254C46.2937 253.986 44.0525 253.117 42.2921 251.548C40.5316 249.979 39.3666 247.814 39.005 245.437C38.9334 244.956 39.6516 244.818 39.7232 245.3C40.056 247.513 41.1414 249.531 42.7836 250.988C44.4258 252.445 46.5166 253.246 48.6786 253.246C49.1484 253.247 49.0825 254.001 48.6154 254V254Z" fill="white"/>
<path d="M57.1068 273.317C60.23 269.887 62.0959 265.251 62.3323 260.334C62.3554 259.847 63.0225 259.913 62.9994 260.4C62.7449 265.516 60.7945 270.336 57.5375 273.897C57.2268 274.237 56.7978 273.655 57.1068 273.317H57.1068Z" fill="white"/>
<path d="M51.3941 232.295C52.2871 232.454 53.2138 232.426 54.0909 232.215C54.968 232.003 55.768 231.615 56.4191 231.083C56.752 230.81 57.2173 231.273 56.8866 231.545C56.1639 232.129 55.2798 232.558 54.3114 232.793C53.3429 233.028 52.3197 233.064 51.3311 232.895C51.2363 232.886 51.1494 232.847 51.088 232.787C51.0266 232.726 50.9953 232.648 51.0006 232.569C51.0094 232.49 51.0557 232.416 51.1293 232.365C51.203 232.314 51.2982 232.288 51.3941 232.295H51.3941Z" fill="white"/>
<path d="M338.72 23H238.28C237.849 23.0006 237.423 22.9105 237.025 22.7349C236.627 22.5593 236.266 22.3015 235.961 21.9765C235.656 21.6514 235.415 21.2654 235.25 20.8404C235.085 20.4155 235 19.96 235 19.5C235 19.04 235.085 18.5845 235.25 18.1596C235.415 17.7346 235.656 17.3486 235.961 17.0235C236.266 16.6984 236.627 16.4407 237.025 16.2651C237.423 16.0895 237.849 15.9994 238.28 16H338.72C339.151 15.9994 339.577 16.0895 339.975 16.2651C340.373 16.4407 340.734 16.6984 341.039 17.0235C341.344 17.3486 341.585 17.7346 341.75 18.1596C341.915 18.5845 342 19.04 342 19.5C342 19.96 341.915 20.4155 341.75 20.8404C341.585 21.2654 341.344 21.6514 341.039 21.9765C340.734 22.3015 340.373 22.5593 339.975 22.7349C339.577 22.9105 339.151 23.0006 338.72 23Z" fill="#E6E6E6"/>
<path d="M338.728 36H238.272C237.404 35.9988 236.572 35.6295 235.958 34.9733C235.345 34.317 235 33.4275 235 32.5C235 31.5725 235.345 30.683 235.958 30.0267C236.572 29.3705 237.404 29.0012 238.272 29H338.728C339.596 29.0012 340.428 29.3705 341.042 30.0267C341.655 30.683 342 31.5725 342 32.5C342 33.4275 341.655 34.317 341.042 34.9733C340.428 35.6295 339.596 35.9988 338.728 36Z" fill="#E6E6E6"/>
<path d="M281.726 48H238.266C237.399 47.999 236.569 47.6824 235.956 47.1199C235.344 46.5574 235 45.795 235 45C235 44.205 235.344 43.4425 235.956 42.88C236.569 42.3176 237.399 42.001 238.266 42H281.726C282.156 41.9995 282.581 42.0767 282.978 42.2272C283.376 42.3778 283.737 42.5987 284.041 42.8773C284.345 43.1559 284.586 43.4868 284.751 43.851C284.915 44.2153 285 44.6057 285 45C285 45.3943 284.915 45.7847 284.751 46.1489C284.586 46.5132 284.345 46.8441 284.041 47.1227C283.737 47.4013 283.376 47.6222 282.978 47.7728C282.581 47.9233 282.156 48.0005 281.726 48Z" fill="#E6E6E6"/>
<path d="M338.724 96H238.276C237.407 96 236.574 95.6839 235.96 95.1213C235.345 94.5587 235 93.7956 235 93C235 92.2044 235.345 91.4413 235.96 90.8787C236.574 90.3161 237.407 90 238.276 90H338.724C339.593 90 340.426 90.3161 341.04 90.8787C341.655 91.4413 342 92.2044 342 93C342 93.7956 341.655 94.5587 341.04 95.1213C340.426 95.6839 339.593 96 338.724 96Z" fill="#E6E6E6"/>
<path d="M338.724 109H238.276C237.407 109 236.574 108.684 235.96 108.121C235.345 107.559 235 106.796 235 106C235 105.204 235.345 104.441 235.96 103.879C236.574 103.316 237.407 103 238.276 103H338.724C339.593 103 340.426 103.316 341.04 103.879C341.655 104.441 342 105.204 342 106C342 106.796 341.655 107.559 341.04 108.121C340.426 108.684 339.593 109 338.724 109Z" fill="#E6E6E6"/>
<path d="M281.726 122H238.27C237.402 122 236.571 121.684 235.958 121.121C235.344 120.559 235 119.796 235 119C235 118.204 235.344 117.441 235.958 116.879C236.571 116.316 237.402 116 238.27 116H281.726C282.156 115.999 282.581 116.077 282.979 116.227C283.376 116.378 283.737 116.599 284.041 116.877C284.345 117.156 284.586 117.487 284.751 117.851C284.915 118.215 285 118.606 285 119C285 119.394 284.915 119.785 284.751 120.149C284.586 120.513 284.345 120.844 284.041 121.123C283.737 121.401 283.376 121.622 282.979 121.773C282.581 121.923 282.156 122.001 281.726 122Z" fill="#E6E6E6"/>
<path d="M338.724 174H238.276C237.846 174 237.42 173.909 237.022 173.734C236.625 173.558 236.264 173.3 235.96 172.975C235.655 172.65 235.414 172.264 235.249 171.839C235.085 171.415 235 170.96 235 170.5C235 170.04 235.085 169.585 235.249 169.161C235.414 168.736 235.655 168.35 235.96 168.025C236.264 167.7 236.625 167.442 237.022 167.266C237.42 167.091 237.846 167 238.276 167H338.724C339.154 167 339.58 167.091 339.978 167.266C340.375 167.442 340.736 167.7 341.04 168.025C341.345 168.35 341.586 168.736 341.751 169.161C341.915 169.585 342 170.04 342 170.5C342 170.96 341.915 171.415 341.751 171.839C341.586 172.264 341.345 172.65 341.04 172.975C340.736 173.3 340.375 173.558 339.978 173.734C339.58 173.909 339.154 174 338.724 174Z" fill="#4285F4"/>
<path d="M338.728 187H238.272C237.404 186.999 236.572 186.63 235.958 185.973C235.345 185.317 235 184.427 235 183.5C235 182.573 235.345 181.683 235.958 181.027C236.572 180.37 237.404 180.001 238.272 180H338.728C339.596 180.001 340.428 180.37 341.042 181.027C341.655 181.683 342 182.573 342 183.5C342 184.427 341.655 185.317 341.042 185.973C340.428 186.63 339.596 186.999 338.728 187Z" fill="#4285F4"/>
<path d="M281.726 200H238.27C237.402 200 236.571 199.631 235.958 198.975C235.344 198.319 235 197.428 235 196.5C235 195.572 235.344 194.682 235.958 194.025C236.571 193.369 237.402 193 238.27 193H281.726C282.156 192.999 282.581 193.089 282.979 193.265C283.376 193.441 283.737 193.698 284.041 194.024C284.345 194.349 284.586 194.735 284.751 195.16C284.915 195.584 285 196.04 285 196.5C285 196.96 284.915 197.416 284.751 197.84C284.586 198.265 284.345 198.651 284.041 198.976C283.737 199.302 283.376 199.559 282.979 199.735C282.581 199.911 282.156 200.001 281.726 200Z" fill="#4285F4"/>
<path d="M207.862 132H147.138C145.511 131.998 143.951 131.352 142.8 130.204C141.649 129.056 141.002 127.499 141 125.875V86.125C141.002 84.5011 141.649 82.9443 142.8 81.796C143.951 80.6477 145.511 80.0018 147.138 80H207.862C209.489 80.0018 211.049 80.6477 212.2 81.796C213.351 82.9443 213.998 84.5011 214 86.125V125.875C213.998 127.499 213.351 129.056 212.2 130.204C211.049 131.352 209.489 131.998 207.862 132Z" fill="#E6E6E6"/>
<path d="M203.444 85H151.558C150.085 85.0014 148.673 85.5883 147.631 86.6319C146.589 87.6756 146.002 89.0907 146 90.567V121.43C146.002 122.907 146.588 124.322 147.63 125.366C148.672 126.41 150.085 126.998 151.558 127H184.644C191.102 126.994 197.293 124.42 201.859 119.845C206.425 115.269 208.994 109.066 209 102.595V90.567C208.998 89.091 208.413 87.6759 207.371 86.6322C206.329 85.5886 204.917 85.0015 203.444 85Z" fill="white"/>
<path d="M188.993 95.1046L188.84 95.3805C190.201 92.0232 188.963 87.8862 186.535 85.3547C184.107 82.8233 180.732 81.6659 177.408 81.2068C174.941 80.866 172.38 80.8758 170.034 81.7804C166.637 83.0903 164.041 86.1226 161.874 89.2771C160.883 90.7199 159.908 92.3648 160.007 94.1681C160.099 95.8416 161.091 97.2618 161.904 98.6816C162.717 100.101 163.395 101.863 162.812 103.413C162.465 104.336 161.73 105.001 161.134 105.757C160.538 106.512 160.047 107.533 160.335 108.481C160.463 108.844 160.683 109.167 160.973 109.419C161.263 109.671 161.613 109.844 161.99 109.92C162.719 110.042 163.465 110.024 164.188 109.868L183.132 107.003C184.42 106.809 185.641 106.305 186.692 105.536C187.743 104.767 188.592 103.755 189.168 102.586C189.744 101.417 190.028 100.127 189.998 98.8238C189.967 97.5211 189.623 96.2451 188.993 95.1046Z" fill="#2F2E41"/>
<path d="M174.5 107C179.747 107 184 102.747 184 97.5C184 92.2533 179.747 88 174.5 88C169.253 88 165 92.2533 165 97.5C165 102.747 169.253 107 174.5 107Z" fill="#9E616A"/>
<path d="M199 122.179C194.871 125.317 189.881 127.006 184.759 127H156.17C156.112 126.952 156.058 126.904 156 126.852L158.666 119.148C159.269 117.78 160.22 116.607 161.417 115.756C162.614 114.905 164.012 114.407 165.462 114.316L167.158 114.208L171.203 110.596C171.203 110.596 182.101 110.193 181.939 110L188.54 114.112L188.535 114.083L191.13 114.248C192.58 114.338 193.978 114.836 195.176 115.687C196.373 116.539 197.324 117.712 197.926 119.08L199 122.179Z" fill="#4285F4"/>
<path d="M183.963 88.9737C183.716 87.6818 182.383 87.0909 181.241 86.8046C177.93 85.9691 174.485 85.782 171.1 86.2539C168.633 86.6018 166.108 87.3689 164.318 89.273C162.874 90.8763 162.056 92.9361 162.011 95.0821C161.938 96.3653 162.228 97.6432 162.848 98.7726C163.126 99.2984 163.537 99.7438 164.041 100.065C164.545 100.386 165.125 100.573 165.724 100.605L165.839 101C170.642 100.338 175.105 97.3829 177.915 93.0019C177.387 94.8641 176.338 96.5407 174.887 97.838C178.13 96.5549 180.949 94.4066 183.03 91.6325C183.599 90.8866 184.15 89.9565 183.963 88.9737Z" fill="#2F2E41"/>
<path d="M207.862 58H147.138C145.511 57.9982 143.951 57.3523 142.8 56.204C141.649 55.0557 141.002 53.4989 141 51.875V12.125C141.002 10.5011 141.649 8.94425 142.8 7.796C143.951 6.64774 145.511 6.00184 147.138 6H207.862C209.489 6.00184 211.049 6.64773 212.2 7.79599C213.351 8.94425 213.998 10.5011 214 12.125V51.875C213.998 53.4989 213.351 55.0557 212.2 56.204C211.049 57.3523 209.489 57.9982 207.862 58Z" fill="#CCCCCC"/>
<path d="M203.444 11H151.558C150.085 11.0018 148.673 11.5888 147.631 12.6323C146.589 13.6759 146.003 15.0908 146 16.567V47.4303C146.002 48.9068 146.588 50.3223 147.63 51.3664C148.672 52.4105 150.085 52.9979 151.558 53H184.644C191.102 52.9947 197.294 50.4218 201.861 45.8461C206.427 41.2704 208.995 35.066 209 28.595V16.5669C208.998 15.091 208.413 13.6759 207.371 12.6322C206.329 11.5886 204.917 11.0015 203.444 11Z" fill="white"/>
<path d="M165.5 17C167.985 17 170 14.9853 170 12.5C170 10.0147 167.985 8 165.5 8C163.015 8 161 10.0147 161 12.5C161 14.9853 163.015 17 165.5 17Z" fill="#2F2E41"/>
<path d="M172.5 34C178.851 34 184 29.0751 184 23C184 16.9249 178.851 12 172.5 12C166.149 12 161 16.9249 161 23C161 29.0751 166.149 34 172.5 34Z" fill="#2F2E41"/>
<path d="M173 34C177.971 34 182 29.9706 182 25C182 20.0294 177.971 16 173 16C168.029 16 164 20.0294 164 25C164 29.9706 168.029 34 173 34Z" fill="#9E616A"/>
<path d="M179.969 15.5358C178.363 14.5558 176.522 14.0257 174.641 14.0009C172.759 13.9761 170.906 14.4575 169.274 15.3947C167.642 16.3319 166.292 17.6906 165.364 19.3286C164.437 20.9667 163.966 22.8239 164.002 24.7061C168.674 25.8797 173.582 26.7778 178.564 24.9868L179.741 22.1058L180.434 24.989C181.952 25.6094 183.473 26.1344 184.994 24.983C185.056 23.106 184.625 21.2457 183.743 19.5878C182.861 17.93 181.56 16.5327 179.969 15.5358Z" fill="#2F2E41"/>
<path d="M161.196 0.733202C159.599 0.0640494 157.842 -0.15304 156.125 0.106493C154.409 0.366026 152.8 1.09183 151.482 2.20179C150.192 3.3434 149.211 4.78027 148.625 6.38436C148.038 7.98845 147.866 9.70994 148.122 11.3954C148.638 14.8236 150.762 17.7757 152.719 20.6598C154.677 23.5439 156.59 26.7043 156.587 30.1696C156.586 32.6655 155.576 35.059 153.778 36.8251C151.981 38.5912 149.543 39.5857 147 39.5907C149.985 40.8518 153.101 42.1376 156.347 41.9881C159.594 41.8386 162.997 39.7906 163.526 36.6439C163.908 34.3766 162.774 32.1657 161.829 30.0633C160.289 26.6375 159.176 23.0419 158.514 19.3544C158.198 17.5945 157.992 15.7442 158.577 14.0519C159.043 12.7977 159.907 11.7236 161.042 10.9879C162.176 10.2522 163.522 9.8939 164.88 9.96576L165.953 9.01874C166.137 7.32376 165.777 5.61473 164.925 4.12964C164.072 2.64454 162.769 1.45729 161.196 0.733202Z" fill="#2F2E41"/>
<path d="M197 49.6415C193.295 51.8449 189.052 53.006 184.73 53H154.049L154 52.9597L156.641 45.6623C157.238 44.367 158.18 43.257 159.366 42.4514C160.553 41.6457 161.938 41.1749 163.374 41.0893L165.054 40.9872L169.061 37.5669C169.061 37.5669 179.857 37.1827 179.697 37L186.236 40.8932L186.231 40.869L188.802 41.0248C190.238 41.1095 191.624 41.58 192.81 42.3857C193.996 43.1914 194.938 44.3019 195.534 45.5978L197 49.6415Z" fill="#EA4335"/>
<path d="M207.862 210H147.138C145.511 209.998 143.951 209.352 142.8 208.204C141.649 207.056 141.002 205.499 141 203.875V164.125C141.002 162.501 141.649 160.944 142.8 159.796C143.951 158.648 145.511 158.002 147.138 158H207.862C209.489 158.002 211.049 158.648 212.2 159.796C213.351 160.944 213.998 162.501 214 164.125V203.875C213.998 205.499 213.351 207.056 212.2 208.204C211.049 209.352 209.489 209.998 207.862 210Z" fill="#E6E6E6"/>
<path d="M203.444 163H151.558C150.085 163.001 148.673 163.588 147.631 164.632C146.589 165.676 146.002 167.091 146 168.567V199.43C146.002 200.907 146.588 202.322 147.63 203.366C148.672 204.41 150.085 204.998 151.558 205H184.644C191.102 204.994 197.293 202.42 201.859 197.845C206.425 193.269 208.994 187.066 209 180.595V168.567C208.998 167.091 208.413 165.676 207.371 164.632C206.329 163.589 204.917 163.002 203.444 163Z" fill="white"/>
<path d="M177.5 182C184.404 182 190 176.404 190 169.5C190 162.596 184.404 157 177.5 157C170.596 157 165 162.596 165 169.5C165 176.404 170.596 182 177.5 182Z" fill="#2F2E41"/>
<path d="M178 184C184.075 184 189 179.075 189 173C189 166.925 184.075 162 178 162C171.925 162 167 166.925 167 173C167 179.075 171.925 184 178 184Z" fill="#FFB8B8"/>
<path d="M200 199.468C195.697 203.055 190.354 205.006 184.849 205H157L159.642 197.304C160.249 195.912 161.208 194.719 162.415 193.854C163.623 192.988 165.033 192.482 166.495 192.389L168.205 192.28L172.284 188.606C172.284 188.606 183.274 188.196 183.111 188L189.767 192.181L189.762 192.153L192.379 192.32C193.841 192.412 195.251 192.918 196.458 193.784C197.666 194.65 198.625 195.843 199.232 197.234L200 199.468Z" fill="#FDC504"/>
<path d="M189.854 168.7C189.934 167.882 189.971 167.061 189.964 166.24C190.011 164.616 189.699 163 189.049 161.499C188.25 159.836 186.824 158.522 185.055 157.816C183.302 157.142 181.343 157.143 179.592 157.821C178.051 156.809 176.265 156.188 174.402 156.018C173.469 155.946 172.532 156.091 171.671 156.44C170.809 156.789 170.049 157.332 169.455 158.022C169.2 158.402 168.911 158.761 168.59 159.093C167.674 159.904 166.28 159.787 165.062 159.621C165.608 160.068 166.155 160.515 166.702 160.962C166.04 161.127 165.379 161.292 164.717 161.457C165.489 161.904 166.261 162.351 167.033 162.798C164.792 164.082 163.773 166.884 164.042 169.429C164.297 171.838 165.516 174.042 166.973 176C167.554 174.829 167.429 173.429 167.419 172.11C167.414 171.682 167.441 171.255 167.501 170.831C172.425 171.958 177.57 172.681 182.788 170.892L183.835 168.446C183.982 168.46 184.129 168.474 184.276 168.489L184.883 170.894C186.258 171.43 187.637 171.899 189.015 171.407C189.082 171.778 189.123 172.157 189.154 172.522C189.272 172.086 189.375 171.647 189.467 171.206C189.65 171.112 189.824 171.006 189.989 170.887C190.023 170.156 189.977 169.422 189.854 168.7Z" fill="#2F2E41"/>
<path d="M314 49C316.209 49 318 47.433 318 45.5C318 43.567 316.209 42 314 42C311.791 42 310 43.567 310 45.5C310 47.433 311.791 49 314 49Z" fill="#E6E6E6"/>
<path d="M326 49C328.209 49 330 47.433 330 45.5C330 43.567 328.209 42 326 42C323.791 42 322 43.567 322 45.5C322 47.433 323.791 49 326 49Z" fill="#E6E6E6"/>
<path d="M338.5 49C340.433 49 342 47.433 342 45.5C342 43.567 340.433 42 338.5 42C336.567 42 335 43.567 335 45.5C335 47.433 336.567 49 338.5 49Z" fill="#E6E6E6"/>
<path d="M314 122C316.209 122 318 120.433 318 118.5C318 116.567 316.209 115 314 115C311.791 115 310 116.567 310 118.5C310 120.433 311.791 122 314 122Z" fill="#E6E6E6"/>
<path d="M326 122C328.209 122 330 120.433 330 118.5C330 116.567 328.209 115 326 115C323.791 115 322 116.567 322 118.5C322 120.433 323.791 122 326 122Z" fill="#E6E6E6"/>
<path d="M338.5 122C340.433 122 342 120.433 342 118.5C342 116.567 340.433 115 338.5 115C336.567 115 335 116.567 335 118.5C335 120.433 336.567 122 338.5 122Z" fill="#E6E6E6"/>
<path d="M314 200C316.209 200 318 198.433 318 196.5C318 194.567 316.209 193 314 193C311.791 193 310 194.567 310 196.5C310 198.433 311.791 200 314 200Z" fill="#4285F4"/>
<path d="M326 200C328.209 200 330 198.433 330 196.5C330 194.567 328.209 193 326 193C323.791 193 322 194.567 322 196.5C322 198.433 323.791 200 326 200Z" fill="#4285F4"/>
<path d="M338.5 200C340.433 200 342 198.433 342 196.5C342 194.567 340.433 193 338.5 193C336.567 193 335 194.567 335 196.5C335 198.433 336.567 200 338.5 200Z" fill="#4285F4"/>
<path d="M216.879 210.737L197.701 198.381C197.335 198.145 196.913 198.014 196.48 198.001C196.046 197.988 195.618 198.095 195.239 198.309C194.86 198.524 194.545 198.838 194.327 199.219C194.109 199.601 193.996 200.035 194 200.476L194.189 221.78C194.194 222.347 194.391 222.894 194.747 223.329C195.103 223.764 195.597 224.06 196.143 224.167C196.689 224.275 197.256 224.186 197.745 223.917C198.235 223.648 198.618 223.215 198.83 222.691L201.325 216.515L208.282 230.472C208.612 231.132 209.187 231.632 209.879 231.862C210.572 232.092 211.326 232.033 211.975 231.697C212.625 231.362 213.117 230.778 213.344 230.074C213.571 229.37 213.514 228.603 213.185 227.941L206.07 213.667L215.189 215.229C215.738 215.323 216.302 215.221 216.785 214.94C217.269 214.658 217.642 214.216 217.841 213.687C218.04 213.157 218.053 212.575 217.877 212.037C217.702 211.499 217.349 211.04 216.879 210.737Z" fill="#2F2E41"/>
<path d="M59.3837 187.509C59.801 187.022 60.1138 186.443 60.2998 185.813C60.4859 185.183 60.5407 184.516 60.4605 183.861C60.3803 183.206 60.167 182.577 59.8355 182.02C59.5041 181.462 59.0627 180.989 58.5423 180.634L62 165L54.6819 167.865L52.5204 182.273C52.022 183.249 51.8752 184.387 52.1077 185.472C52.3402 186.557 52.9359 187.512 53.7819 188.157C54.6279 188.803 55.6654 189.093 56.6978 188.974C57.7303 188.854 58.6859 188.333 59.3837 187.509Z" fill="#FFB8B8"/>
<path d="M78 122.138L74.8706 130.085C74.8706 130.085 76.2118 138.032 73.9765 139.798C71.7412 141.564 72.6353 141.564 72.6353 142.888C72.5583 143.838 72.2797 144.762 71.8175 145.598C71.3554 146.435 70.7201 147.166 69.9529 147.745C68.1647 149.069 60.1176 176 60.1176 176H52.0706C52.3305 173.948 52.3305 171.871 52.0706 169.819C51.6235 166.729 53.4117 158.782 54.3059 157.457C55.2 156.133 54.3059 154.367 54.3059 151.718C54.3059 149.069 56.0941 147.745 56.0941 143.33C56.0941 138.915 61.4588 104.479 61.0117 100.505C60.5647 96.5319 65.4823 93 65.4823 93H69.9529L78 122.138Z" fill="#E6E6E6"/>
<path d="M62.0005 285H67.4204L70 262H62L62.0005 285Z" fill="#FFB6B6"/>
<path d="M94.0005 285H100.098L103 262H94L94.0005 285Z" fill="#FFB6B6"/>
<path d="M59.5176 265.928H59.58L62.7653 229.479C62.0506 228.084 61.6879 226.532 61.7095 224.96C61.731 223.389 62.1362 221.847 62.8888 220.473L63.047 220.183L62.637 218.26C62.1105 215.789 62.3521 213.214 63.3287 210.887L62.278 176.887C58.5973 152.745 76.1383 137 76.1383 137H102.415L108.056 156.617C110.174 177.502 116.798 199.47 115.92 219.717C115.253 235.12 107.748 248.943 105.191 263.943L105.352 264.026C105.933 264.229 106.182 265.043 105.909 265.845C105.635 266.647 104.943 267.132 104.362 266.929L90.4847 266.441C89.9038 266.238 89.6545 265.423 89.9281 264.621C90.2015 263.82 90.8941 263.334 91.4751 263.537L92.4186 264.02L99.2505 227.269L99.4738 220.845L99.0137 213.556L88.0425 182.353L79.9912 222.667L71.7671 266.334C71.9939 266.542 72.1531 266.814 72.2237 267.116C72.2942 267.417 72.2729 267.733 72.1624 268.022C72.0519 268.311 71.8574 268.559 71.6047 268.733C71.352 268.908 71.0529 269.001 70.7469 269H59.5176C59.3183 269 59.1209 268.96 58.9368 268.883C58.7527 268.806 58.5854 268.693 58.4445 268.55C58.3036 268.408 58.1918 268.238 58.1155 268.052C58.0393 267.865 58 267.666 58 267.464C58 267.262 58.0393 267.063 58.1155 266.876C58.1918 266.69 58.3036 266.521 58.4445 266.378C58.5854 266.235 58.7527 266.122 58.9368 266.045C59.1209 265.968 59.3183 265.928 59.5176 265.928Z" fill="#3BB25E"/>
<path d="M56.6798 153C55.7872 153 55.2803 152.831 55.084 152.467C54.7959 151.934 55.2958 151.238 55.8745 150.431C56.3039 149.904 56.6426 149.313 56.8774 148.682C57.2235 147.342 59.5597 113.492 58.1623 106.728C57.8391 105.163 58.1174 103.157 58.9891 100.766C61.3705 94.2355 64.6211 92.2284 71.0966 88.2305C71.6222 87.9059 72.1696 87.5669 72.7387 87.2135C73.4748 86.7556 73.4338 85.2374 73.3905 83.6297C73.3424 81.8429 73.2924 79.9951 74.1968 78.8402L74.2557 78.7649L74.3505 78.7435C76.538 78.2541 83.895 77.3455 88.252 78.7502L88.3122 78.77L88.3571 78.8133C89.3921 79.815 89.4864 81.7554 89.5776 83.6318C89.6523 85.1723 89.7229 86.6269 90.3085 87.2588C94.7851 92.0885 99.8622 91.9944 99.9137 91.9933L100.165 91.9862L100.19 92.2284C102.137 111.399 105.276 140.334 105.944 141.473C105.978 141.525 105.998 141.585 106 141.647C106.002 141.709 105.986 141.771 105.955 141.825C104.975 143.596 60.0438 153 56.6798 153Z" fill="#E6E6E6"/>
<path d="M85.5 73C92.9559 73 99 67.4036 99 60.5C99 53.5964 92.9559 48 85.5 48C78.0442 48 72 53.5964 72 60.5C72 67.4036 78.0442 73 85.5 73Z" fill="#FFB8B8"/>
<path d="M50.091 55.2221C52.2709 52.5845 53.3073 49.0852 55.0501 46.0902C56.7928 43.0951 59.8254 40.4145 63.0293 41.1115C65.2378 41.592 66.9446 43.6139 67.8087 45.8682C68.6727 48.1224 68.8346 50.6083 68.986 53.0437C68.9326 48.0389 72.1107 43.1871 76.4886 41.5901C80.8662 39.9931 86.1054 41.7745 88.8563 45.7952C90.0568 44.6408 91.6238 43.9835 93.2602 43.9479C94.8966 43.9122 96.4888 44.5007 97.7349 45.6019C100.195 47.8835 100.74 52.2262 98.9304 55.1365C98.0218 56.5526 96.6462 57.5758 95.062 58.0141C93.4777 58.4524 91.7937 58.2756 90.3261 57.5169L89.3094 58.4872C89.5728 59.5244 89.4764 60.6246 89.0372 61.5955C88.5979 62.5664 87.8437 63.3462 86.9063 63.7985C85.3936 64.4325 83.2579 64.327 82.6918 65.974C82.2962 67.1249 83.0356 68.3533 83.8222 69.2377C84.6086 70.122 85.5424 71.0353 85.6368 72.259C85.7795 74.1055 83.9404 75.399 82.2685 75.7885C80.2189 76.2137 78.0936 75.9946 76.1646 75.1594C74.2357 74.3241 72.5908 72.9107 71.4406 71.1C71.3959 71.0288 71.3472 70.9575 71.2946 70.8862C69.991 69.1566 69.0409 67.1693 68.5026 65.046C67.9642 62.9226 67.8487 60.7076 68.1633 58.5364C68.2939 57.6832 68.1623 57.0487 67.5953 56.8467C65.145 55.9734 58.2797 57.8062 56.202 59.4627C54.1242 61.1192 52.4604 63.3113 50.4591 65.0747C48.4576 66.8381 45.9073 68.1983 43.3662 67.7181C41.331 67.3335 39.5996 65.8006 38.435 63.9515C37.3368 62.0379 36.5163 59.9669 36 57.8051C40.5004 60.5025 46.6597 59.3734 50.091 55.2221Z" fill="#2F2E41"/>
<path d="M106.14 187.509C105.639 187.022 105.263 186.443 105.04 185.813C104.817 185.183 104.751 184.516 104.847 183.861C104.944 183.206 105.2 182.577 105.597 182.02C105.995 181.462 106.525 180.989 107.149 180.634L103 165L111.782 167.865L114.376 182.273C114.974 183.249 115.15 184.387 114.871 185.472C114.592 186.557 113.877 187.512 112.862 188.157C111.847 188.803 110.602 189.093 109.363 188.974C108.124 188.854 106.977 188.333 106.14 187.509H106.14Z" fill="#FFB8B8"/>
<path d="M87 122.138L90.2498 130.085C90.2498 130.085 88.857 138.032 91.1783 139.798C93.4996 141.564 92.5711 141.564 92.5711 142.888C92.651 143.838 92.9404 144.762 93.4203 145.598C93.9002 146.435 94.5599 147.166 95.3566 147.745C97.2136 149.069 105.57 176 105.57 176H113.927C113.657 173.948 113.657 171.871 113.927 169.819C114.391 166.729 112.534 158.782 111.605 157.457C110.677 156.133 111.605 154.367 111.605 151.718C111.605 149.069 109.748 147.745 109.748 143.33C109.748 138.915 104.177 104.479 104.642 100.505C105.106 96.5319 99.9991 93 99.9991 93H95.3566L87 122.138Z" fill="#E6E6E6"/>
<path d="M60.1503 280.569L69.2727 280V284.086L77.9458 290.348C78.3742 290.657 78.6968 291.101 78.8665 291.616C79.0363 292.13 79.0443 292.688 78.8894 293.207C78.7345 293.727 78.4247 294.181 78.0054 294.504C77.586 294.826 77.0791 295 76.5585 295H65.6978L63.8258 290.958L63.0949 295H59L60.1503 280.569Z" fill="#2F2E41"/>
<path d="M93.0928 280.569L101.759 280V284.086L109.998 290.348C110.405 290.657 110.712 291.101 110.873 291.616C111.034 292.13 111.042 292.688 110.895 293.207C110.748 293.727 110.453 294.181 110.055 294.504C109.657 294.826 109.175 295 108.681 295H98.3629L96.5845 290.958L95.8902 295H92L93.0928 280.569Z" fill="#2F2E41"/>
<path d="M14 295L352 295" stroke="#E6E6E6" stroke-width="2"/>
</svg>
