<svg width="339" height="294" viewBox="0 0 339 294" fill="none" xmlns="http://www.w3.org/2000/svg">
<path d="M1 244L338 244" stroke="#E6E6E6" stroke-width="2" stroke-linecap="round"/>
<path d="M142.33 219.41C199.076 219.41 245.077 173.409 245.077 116.664C245.077 59.9183 199.076 13.917 142.33 13.917C85.585 13.917 39.5837 59.9183 39.5837 116.664C39.5837 173.409 85.585 219.41 142.33 219.41Z" fill="#9F9F9F"/>
<path d="M230.74 116.664C230.751 130.459 227.528 144.065 221.331 156.39C215.134 168.715 206.135 179.416 195.056 187.636C194.315 188.19 193.56 188.73 192.8 189.256C177.985 199.554 160.374 205.074 142.33 205.074C124.287 205.074 106.676 199.554 91.8602 189.256C91.1004 188.73 90.3453 188.19 89.6046 187.636C78.533 179.409 69.5397 168.706 63.3436 156.383C57.1475 144.059 53.9204 130.457 53.9204 116.664C53.9204 102.87 57.1475 89.2684 63.3436 76.945C69.5397 64.6217 78.533 53.9188 89.6046 45.6922C90.3453 45.1378 91.1004 44.5978 91.8602 44.0721C106.676 33.7736 124.287 28.2539 142.33 28.2539C160.374 28.2539 177.985 33.7736 192.8 44.0721C193.56 44.5978 194.315 45.1378 195.056 45.6922C206.135 53.9116 215.134 64.6129 221.331 76.938C227.528 89.263 230.751 102.869 230.74 116.664Z" fill="white"/>
<path d="M142.331 197.428C186.935 197.428 223.094 161.269 223.094 116.664C223.094 72.0595 186.935 35.9004 142.331 35.9004C97.726 35.9004 61.5669 72.0595 61.5669 116.664C61.5669 161.269 97.726 197.428 142.331 197.428Z" fill="#E6E6E6"/>
<path opacity="0.2" d="M142.541 36.125C141.317 36.125 140.1 36.157 138.889 36.2109C159.302 38.0046 178.269 47.4906 191.949 62.747C205.629 78.0033 212.998 97.8892 212.563 118.376C212.128 138.862 203.922 158.418 189.607 173.08C175.292 187.742 155.94 196.415 135.469 197.341C137.8 197.543 140.158 197.652 142.541 197.652C163.961 197.652 184.504 189.143 199.65 173.997C214.796 158.851 223.305 138.309 223.305 116.889C223.305 95.4688 214.796 74.9263 199.65 59.7801C184.504 44.634 163.961 36.125 142.541 36.125V36.125Z" fill="#606060"/>
<path d="M142.569 30.165C141.873 30.1663 141.205 30.4436 140.712 30.9362C140.219 31.4289 139.942 32.0967 139.941 32.7934V44.2628C139.941 44.9599 140.218 45.6285 140.711 46.1214C141.204 46.6143 141.872 46.8912 142.569 46.8912C143.266 46.8912 143.935 46.6143 144.428 46.1214C144.921 45.6285 145.198 44.9599 145.198 44.2628V32.7934C145.197 32.0967 144.919 31.4289 144.427 30.9362C143.934 30.4436 143.266 30.1663 142.569 30.165Z" fill="white"/>
<path d="M195.057 45.691C194.316 45.1367 193.561 44.5967 192.801 44.071C192.345 44.0413 191.889 44.131 191.478 44.3313C191.068 44.5316 190.717 44.8356 190.459 45.2132L184.003 54.6897C183.611 55.2658 183.463 55.9741 183.593 56.6588C183.723 57.3435 184.12 57.9486 184.696 58.3408C185.272 58.7331 185.98 58.8805 186.665 58.7505C187.35 58.6206 187.955 58.224 188.347 57.6479L194.803 48.1713C195.049 47.8118 195.201 47.3965 195.245 46.9634C195.289 46.5302 195.224 46.0928 195.057 45.691Z" fill="white"/>
<path d="M224.389 88.9016C224.26 88.5821 224.068 88.2913 223.826 88.0458C223.584 87.8004 223.295 87.605 222.978 87.471C222.66 87.337 222.319 87.2669 221.974 87.2647C221.629 87.2625 221.287 87.3283 220.968 87.4584L210.339 91.7737C209.694 92.0365 209.18 92.5447 208.909 93.1866C208.638 93.8285 208.634 94.5516 208.896 95.1969C209.158 95.8423 209.666 96.3572 210.307 96.6284C210.949 96.8997 211.672 96.9051 212.318 96.6435L222.946 92.3281C223.591 92.064 224.105 91.5551 224.375 90.9129C224.646 90.2707 224.651 89.5475 224.389 88.9016Z" fill="white"/>
<path d="M100.658 54.6898L94.2021 45.2132C93.9449 44.8356 93.5935 44.5316 93.1829 44.3313C92.7722 44.131 92.3164 44.0413 91.8605 44.071C91.1006 44.5967 90.3455 45.1367 89.6048 45.691C89.4369 46.0928 89.3721 46.5302 89.4163 46.9634C89.4606 47.3965 89.6124 47.8118 89.8581 48.1713L96.3144 57.6479C96.7067 58.2239 97.3117 58.6206 97.9964 58.7505C98.6812 58.8805 99.3894 58.7331 99.9655 58.3408C100.542 57.9486 100.938 57.3435 101.068 56.6588C101.198 55.9741 101.051 55.2658 100.658 54.6898Z" fill="white"/>
<path d="M74.3221 91.7751L63.6938 87.4597C63.0481 87.1975 62.3246 87.2025 61.6826 87.4736C61.0406 87.7448 60.5325 88.2598 60.2702 88.9055C60.0079 89.5512 60.0127 90.2746 60.2837 90.9167C60.5548 91.5588 61.0697 92.0669 61.7154 92.3294L72.3437 96.6448C72.9893 96.9064 73.7124 96.901 74.354 96.6297C74.9956 96.3585 75.5033 95.8436 75.7655 95.1982C76.0277 94.5528 76.023 93.8298 75.7523 93.1879C75.4817 92.546 74.9673 92.0378 74.3221 91.775V91.7751Z" fill="white"/>
<path d="M142.569 186.436C141.873 186.437 141.205 186.714 140.712 187.207C140.219 187.699 139.942 188.367 139.941 189.064V200.533C139.941 201.23 140.218 201.899 140.711 202.392C141.204 202.885 141.872 203.162 142.569 203.162C143.266 203.162 143.935 202.885 144.428 202.392C144.921 201.899 145.198 201.23 145.198 200.533V189.064C145.197 188.367 144.919 187.699 144.427 187.207C143.934 186.714 143.266 186.437 142.569 186.436Z" fill="white"/>
<path d="M194.803 185.156L188.347 175.679C188.153 175.394 187.904 175.15 187.616 174.96C187.327 174.771 187.004 174.641 186.665 174.576C186.326 174.512 185.977 174.515 185.64 174.585C185.302 174.656 184.981 174.792 184.696 174.986C184.411 175.18 184.166 175.429 183.977 175.717C183.788 176.006 183.658 176.329 183.593 176.668C183.529 177.007 183.532 177.356 183.602 177.693C183.673 178.031 183.809 178.352 184.003 178.637L190.459 188.114C190.716 188.491 191.068 188.795 191.478 188.996C191.889 189.196 192.345 189.286 192.801 189.256C193.561 188.73 194.316 188.19 195.057 187.636C195.224 187.234 195.289 186.797 195.245 186.364C195.201 185.93 195.049 185.515 194.803 185.156Z" fill="white"/>
<path d="M222.946 140.997L212.318 136.681C211.672 136.419 210.949 136.424 210.307 136.695C209.665 136.966 209.157 137.481 208.894 138.127C208.632 138.773 208.637 139.496 208.908 140.138C209.179 140.78 209.694 141.289 210.34 141.551L220.968 145.866C221.614 146.128 222.337 146.123 222.978 145.851C223.62 145.58 224.128 145.065 224.39 144.42C224.652 143.775 224.647 143.051 224.377 142.41C224.106 141.768 223.592 141.26 222.946 140.997V140.997Z" fill="white"/>
<path d="M99.9655 174.986C99.3894 174.594 98.6811 174.446 97.9965 174.576C97.3118 174.706 96.7068 175.103 96.3144 175.679L89.8581 185.155C89.6124 185.515 89.4606 185.93 89.4163 186.363C89.3721 186.796 89.4369 187.234 89.6048 187.636C90.3455 188.19 91.1006 188.73 91.8605 189.256C92.3164 189.285 92.7722 189.196 93.1829 188.995C93.5935 188.795 93.9449 188.491 94.2021 188.113L100.658 178.637C100.853 178.352 100.989 178.031 101.059 177.693C101.129 177.355 101.133 177.007 101.068 176.668C101.004 176.329 100.873 176.006 100.684 175.717C100.495 175.429 100.251 175.18 99.9655 174.986Z" fill="white"/>
<path d="M75.7651 138.125C75.6353 137.806 75.4438 137.515 75.2015 137.269C74.9593 137.024 74.671 136.829 74.3533 136.695C74.0355 136.561 73.6944 136.49 73.3496 136.488C73.0047 136.486 72.6628 136.552 72.3434 136.682L61.715 140.997C61.0699 141.26 60.5555 141.768 60.2848 142.41C60.0142 143.052 60.0094 143.775 60.2717 144.421C60.5339 145.066 61.0416 145.581 61.6832 145.852C62.3248 146.123 63.0479 146.129 63.6935 145.867L74.3218 141.552C74.9667 141.288 75.4806 140.779 75.7511 140.137C76.0216 139.494 76.0266 138.771 75.7651 138.125Z" fill="white"/>
<path d="M145.98 115.36C146.223 116.797 145.885 118.271 145.042 119.46C144.2 120.648 142.92 121.454 141.483 121.7L94.8421 129.633C94.1306 129.755 93.4023 129.734 92.6986 129.574C91.995 129.413 91.3298 129.116 90.7412 128.698C90.1525 128.281 89.6518 127.751 89.2677 127.14C88.8836 126.529 88.6236 125.849 88.5026 125.137C88.3816 124.426 88.4019 123.697 88.5624 122.994C88.7228 122.29 89.0203 121.625 89.4378 121.036C89.8554 120.447 90.3848 119.947 90.9958 119.563C91.6068 119.179 92.2875 118.919 92.999 118.798L139.64 110.864C141.077 110.621 142.551 110.958 143.74 111.801C144.928 112.644 145.734 113.924 145.98 115.36Z" fill="#4285F4"/>
<path d="M195.069 167.033C194.399 167.707 193.489 168.088 192.539 168.092C191.588 168.095 190.675 167.722 190 167.053L139.791 117.239C139.118 116.569 138.737 115.659 138.734 114.709C138.731 113.759 139.105 112.846 139.774 112.172C140.443 111.498 141.352 111.117 142.302 111.112C143.252 111.108 144.165 111.481 144.84 112.15L195.049 161.965C195.723 162.635 196.103 163.545 196.107 164.495C196.111 165.445 195.737 166.358 195.069 167.033Z" fill="#4285F4"/>
<path d="M142.331 122.876C145.762 122.876 148.543 120.095 148.543 116.664C148.543 113.233 145.762 110.451 142.331 110.451C138.899 110.451 136.118 113.233 136.118 116.664C136.118 120.095 138.899 122.876 142.331 122.876Z" fill="#CCCCCC"/>
<path d="M180.535 205.68C179.927 206.021 179.48 206.589 179.291 207.26C179.101 207.93 179.186 208.648 179.525 209.257L194.694 236.364C195.034 236.972 195.602 237.42 196.273 237.61C196.944 237.799 197.663 237.714 198.271 237.374C198.879 237.033 199.327 236.465 199.517 235.795C199.706 235.124 199.621 234.405 199.281 233.797L184.112 206.69C183.771 206.082 183.203 205.635 182.532 205.446C181.862 205.256 181.143 205.341 180.535 205.68Z" fill="#9F9F9F"/>
<path d="M100.549 206.69L85.3801 233.797C85.0399 234.406 84.9552 235.124 85.1447 235.795C85.3341 236.466 85.7823 237.034 86.3905 237.374C86.9988 237.714 87.7173 237.799 88.3881 237.61C89.0588 237.421 89.627 236.973 89.9675 236.364L105.137 209.257C105.305 208.956 105.413 208.624 105.453 208.282C105.494 207.939 105.467 207.591 105.373 207.259C105.279 206.927 105.121 206.616 104.907 206.345C104.693 206.074 104.428 205.848 104.127 205.679C103.826 205.511 103.494 205.403 103.151 205.363C102.808 205.322 102.461 205.35 102.129 205.444C101.796 205.538 101.486 205.696 101.215 205.91C100.944 206.124 100.718 206.389 100.549 206.69H100.549Z" fill="#9F9F9F"/>
<path d="M197.766 243.305C202.253 243.305 205.89 239.668 205.89 235.181C205.89 230.694 202.253 227.057 197.766 227.057C193.279 227.057 189.642 230.694 189.642 235.181C189.642 239.668 193.279 243.305 197.766 243.305Z" fill="#9F9F9F"/>
<path d="M141.852 16.3059C146.339 16.3059 149.977 12.6686 149.977 8.18177C149.977 3.69493 146.339 0.0576172 141.852 0.0576172C137.366 0.0576172 133.728 3.69493 133.728 8.18177C133.728 12.6686 137.366 16.3059 141.852 16.3059Z" fill="#9F9F9F"/>
<path d="M88.3285 243.305C92.8154 243.305 96.4527 239.668 96.4527 235.181C96.4527 230.694 92.8154 227.057 88.3285 227.057C83.8417 227.057 80.2043 230.694 80.2043 235.181C80.2043 239.668 83.8417 243.305 88.3285 243.305Z" fill="#9F9F9F"/>
<path d="M191.393 162.465C191.713 162.966 192.14 163.392 192.642 163.71C193.144 164.029 193.711 164.234 194.301 164.311C194.891 164.387 195.49 164.333 196.057 164.153C196.624 163.972 197.145 163.67 197.582 163.266L210.33 170.097L209.646 162.613L197.646 157.274C196.919 156.584 195.965 156.184 194.964 156.151C193.963 156.117 192.984 156.452 192.213 157.092C191.443 157.732 190.934 158.633 190.782 159.623C190.631 160.613 190.849 161.624 191.393 162.465H191.393Z" fill="#FFB7B7"/>
<path d="M200.682 165.077L205.678 158.182L229.744 169.559L259.692 163.939C261.172 163.662 262.696 163.713 264.154 164.09C265.612 164.468 266.969 165.161 268.129 166.122C269.289 167.083 270.223 168.287 270.866 169.649C271.508 171.012 271.842 172.499 271.845 174.005C271.847 176.725 270.77 179.336 268.85 181.263C266.93 183.19 264.324 184.277 261.603 184.285L227.283 184.348L200.682 165.077Z" fill="#E6E6E6"/>
<path d="M192.988 284.181L187.933 281.763L194.876 260.637L202.336 264.205L192.988 284.181Z" fill="#FFB7B7"/>
<path d="M226.873 280.774C226.506 281.005 226.138 281.231 225.767 281.458C225.028 281.91 224.282 282.356 223.535 282.794C223.16 283.013 222.782 283.232 222.407 283.448V283.459L222.385 283.462L222.377 283.466L221.805 283.607L220.985 281.439L220.606 280.44L220.072 279.026L219.091 276.438L213.931 262.813L221.954 260.834L222.255 262.063H222.258L222.407 262.672L225.21 274.04L225.782 276.364L225.8 276.434L226.145 277.823L226.442 279.026L226.773 280.37L226.873 280.774Z" fill="#FFB7B7"/>
<path d="M274.733 232.926C274.224 233.743 273.705 234.556 273.181 235.362C272.208 236.862 271.21 238.339 270.185 239.795C270.185 239.798 270.181 239.798 270.178 239.802C269.58 240.356 268.919 240.838 268.21 241.239C268.18 241.261 268.147 241.276 268.117 241.294C267.595 241.583 267.038 241.806 266.461 241.959C266.253 242.011 266.042 242.063 265.834 242.115C265.084 242.293 264.341 242.445 263.603 242.579C262.288 242.813 260.989 242.98 259.697 243.084C259.593 243.095 259.489 243.102 259.385 243.11C254.072 243.5 248.901 242.872 243.503 241.844C240.837 241.339 238.116 240.734 235.298 240.106C234.377 239.898 233.453 239.694 232.517 239.49C232.446 239.475 232.372 239.457 232.298 239.442C230.961 239.149 229.603 238.859 228.21 238.573C226.458 238.213 224.65 237.864 222.771 237.534L222.905 240.181C223.016 242.217 223.439 244.224 224.16 246.132C224.962 248.478 225.597 250.335 224.256 254.199L223.61 256.071C223.945 257 224.06 257.994 223.946 258.975C223.832 259.956 223.492 260.897 222.953 261.725L222.823 261.922L228.21 275.551L228.559 276.434H225.801L222.407 276.438H216.657L208.359 259.791L207.962 258.996V258.955L208.819 226.964C208.83 226.682 208.853 226.396 208.89 226.114C209.041 224.831 209.446 223.591 210.082 222.467C210.717 221.342 211.57 220.356 212.591 219.565C213.57 218.8 214.69 218.238 215.888 217.91C217.085 217.582 218.336 217.496 219.567 217.656L222.407 218.024L228.21 218.774L232.298 219.305L232.38 219.316L244.434 220.875L245.299 217.348L245.459 217.289L250.534 215.429L268.087 208.995L268.132 208.98L269.287 208.557L269.424 208.779C269.465 208.846 269.506 208.913 269.543 208.98C270.684 211.026 271.613 213.183 272.316 215.418C273.498 219.068 274.471 222.783 275.23 226.544C275.264 226.708 275.294 226.856 275.32 226.99L275.331 227.031C275.342 227.094 275.349 227.135 275.353 227.146C275.758 228.831 275.476 230.888 274.733 232.926Z" fill="#FDC504"/>
<path d="M275.474 221.136C275.418 220.899 275.348 220.657 275.274 220.423C274.684 218.652 273.998 216.914 273.217 215.218C272.341 213.288 271.29 211.22 270.039 208.981C269.434 207.897 268.783 206.77 268.086 205.599C267.737 205.012 267.375 204.415 266.998 203.806C266.984 203.778 266.967 203.75 266.95 203.724L266.842 203.546L249.475 205.87L243.007 206.735L242.621 209.958L242.528 210.756C242.525 210.756 242.525 210.756 242.528 210.76L242.269 212.935V212.939L241.923 215.812L241.894 215.809L232.297 214.565L222.406 213.284L217.093 212.597C215.862 212.437 214.611 212.523 213.414 212.851C212.216 213.178 211.096 213.741 210.117 214.506C209.097 215.297 208.244 216.284 207.608 217.408C206.973 218.532 206.567 219.772 206.416 221.055C206.382 221.314 206.36 221.582 206.349 221.845L201.337 233.722C198.338 240.825 196.428 248.34 195.672 256.013L191.996 267.763L192.52 267.811L200.309 268.535L202.365 268.728L206.895 262.116C207.411 261.362 207.901 260.587 208.358 259.792C209.109 258.494 209.778 257.15 210.359 255.768L220.156 232.452C220.914 232.582 221.664 232.706 222.406 232.824C225.84 233.38 229.137 233.835 232.296 234.186C242.569 235.333 251.465 235.422 259.384 234.45C261.608 234.179 263.757 233.822 265.833 233.38C266.594 233.221 267.345 233.049 268.086 232.864C268.261 232.824 268.431 232.783 268.602 232.738C270.136 232.342 271.547 231.568 272.705 230.486C273.863 229.405 274.73 228.05 275.229 226.546C275.824 224.803 275.909 222.926 275.474 221.136Z" fill="#FDC504"/>
<path d="M194.602 280.73L189.133 278.109L188.276 277.697L186.906 281.061L177.342 283.166C176.869 283.27 176.442 283.522 176.123 283.886C175.803 284.249 175.609 284.706 175.567 285.188C175.526 285.671 175.64 286.153 175.892 286.566C176.145 286.979 176.523 287.301 176.971 287.484L186.316 291.297L189.282 288.627L188.554 292.21L192.074 293.647L195.931 281.369L194.602 280.73Z" fill="#303030"/>
<path d="M228.21 275.551L228.56 276.434H228.21V275.551Z" fill="#2F2E41"/>
<path d="M226.306 276.622L220.576 278.607L219.677 278.918L221.07 282.272L215.755 290.497C215.492 290.903 215.366 291.383 215.395 291.867C215.424 292.35 215.607 292.811 215.917 293.183C216.227 293.555 216.647 293.818 217.117 293.934C217.588 294.049 218.082 294.012 218.529 293.826L227.852 289.961L228.082 285.977L230.086 289.034L233.598 287.579L227.7 276.141L226.306 276.622Z" fill="#303030"/>
<path d="M274.045 226.514C273.705 226.514 273.37 226.43 273.069 226.272L242.83 210.472L242.481 209.041L241.823 204.515L241.832 204.472L244.707 191.214C244.655 191.1 244.544 190.914 244.42 190.703C243.136 188.527 239.229 181.907 246.686 172.791L259.778 157.527L271.014 157.044L271.142 157.205C274.147 160.977 276.173 165.432 277.041 170.174C277.909 174.917 277.592 179.801 276.117 184.392L274.947 205.523L276.202 209.79C276.936 212.298 276.815 214.979 275.857 217.41L276.145 224.32C276.156 224.603 276.11 224.886 276.01 225.151C275.91 225.416 275.757 225.658 275.561 225.863C275.365 226.068 275.13 226.231 274.869 226.343C274.609 226.455 274.328 226.513 274.045 226.514L274.045 226.514Z" fill="#E6E6E6"/>
<path d="M247.816 243.941C248.328 243.639 248.768 243.227 249.104 242.736C249.44 242.246 249.664 241.687 249.761 241.1C249.858 240.513 249.825 239.912 249.665 239.339C249.504 238.766 249.22 238.235 248.832 237.784L256.102 225.281L248.598 225.704L242.845 237.512C242.13 238.214 241.698 239.154 241.629 240.153C241.561 241.152 241.862 242.142 242.475 242.935C243.087 243.727 243.969 244.267 244.954 244.453C245.938 244.638 246.957 244.456 247.816 243.941L247.816 243.941Z" fill="#FFB7B7"/>
<path d="M250.749 234.75L244.031 229.517L256.238 205.861L251.664 175.736C251.438 174.246 251.543 172.726 251.971 171.282C252.398 169.838 253.139 168.505 254.139 167.379C255.14 166.254 256.376 165.362 257.76 164.767C259.143 164.173 260.641 163.891 262.147 163.94C264.865 164.033 267.437 165.2 269.296 167.186C271.155 169.172 272.15 171.814 272.064 174.533L270.934 208.835L250.749 234.75Z" fill="#E6E6E6"/>
<path d="M252.57 151.185V140.066C252.568 136.115 254.135 132.324 256.927 129.528C259.72 126.732 263.508 125.16 267.46 125.157C271.412 125.155 275.202 126.722 277.998 129.514C280.794 132.307 282.366 136.095 282.369 140.047V140.066C284.995 145.538 283.352 148.14 282.369 151.185C282.368 151.715 282.157 152.224 281.782 152.599C281.407 152.974 280.899 153.185 280.368 153.186H254.572C254.041 153.185 253.533 152.974 253.158 152.599C252.782 152.224 252.571 151.716 252.57 151.185Z" fill="#2F2E41"/>
<path d="M262.585 152.463C268.744 152.463 273.737 147.47 273.737 141.311C273.737 135.151 268.744 130.158 262.585 130.158C256.425 130.158 251.432 135.151 251.432 141.311C251.432 147.47 256.425 152.463 262.585 152.463Z" fill="#FFB7B7"/>
<path d="M274.256 144.234C274.155 144.218 274.054 144.196 273.953 144.18C272.213 143.872 270.474 143.569 268.739 143.255L268.58 139.323L266.478 142.845C261.685 144.436 257.2 143.537 252.981 141.552C251.59 140.892 250.24 140.147 248.938 139.323C249.293 137.149 250.129 135.081 251.385 133.272C252.642 131.462 254.287 129.956 256.2 128.864C256.36 128.774 256.514 128.694 256.674 128.614C256.674 128.614 256.675 128.614 256.676 128.614C256.676 128.613 256.677 128.613 256.677 128.613C256.678 128.612 256.678 128.611 256.678 128.611C256.679 128.61 256.679 128.609 256.679 128.609C256.95 128.481 257.227 128.359 257.503 128.247C259.669 127.401 262.031 127.186 264.314 127.629C266.596 128.072 268.707 129.153 270.399 130.747C273.804 133.998 275.336 139.366 274.256 144.234Z" fill="#2F2E41"/>
</svg>
