<svg width="22" height="21" viewBox="0 0 22 21" fill="none" xmlns="http://www.w3.org/2000/svg">
<path d="M15.1 11.2998L13.65 9.8498C13.8 9.06647 13.575 8.33314 12.975 7.6498C12.375 6.96647 11.6 6.6998 10.65 6.8498L9.2 5.39981C9.48333 5.26647 9.77067 5.16647 10.062 5.0998C10.354 5.03314 10.6667 4.9998 11 4.9998C12.25 4.9998 13.3127 5.43714 14.188 6.3118C15.0627 7.18714 15.5 8.2498 15.5 9.4998C15.5 9.83314 15.4667 10.1458 15.4 10.4378C15.3333 10.7291 15.2333 11.0165 15.1 11.2998ZM18.3 14.4498L16.85 13.0498C17.4833 12.5665 18.046 12.0371 18.538 11.4618C19.0293 10.8871 19.45 10.2331 19.8 9.4998C18.9667 7.81647 17.7707 6.47881 16.212 5.4868C14.654 4.49547 12.9167 3.9998 11 3.9998C10.5167 3.9998 10.0417 4.03314 9.575 4.0998C9.10833 4.16647 8.65 4.26647 8.2 4.3998L6.65 2.8498C7.33333 2.56647 8.03333 2.3538 8.75 2.2118C9.46667 2.07047 10.2167 1.9998 11 1.9998C13.5167 1.9998 15.7583 2.69547 17.725 4.0868C19.6917 5.4788 21.1167 7.28314 22 9.4998C21.6167 10.4831 21.1127 11.3958 20.488 12.2378C19.8627 13.0791 19.1333 13.8165 18.3 14.4498ZM18.8 20.5998L14.6 16.4498C14.0167 16.6331 13.4293 16.7708 12.838 16.8628C12.246 16.9541 11.6333 16.9998 11 16.9998C8.48333 16.9998 6.24167 16.3041 4.275 14.9128C2.30833 13.5208 0.883333 11.7165 0 9.4998C0.35 8.61647 0.791667 7.79547 1.325 7.0368C1.85833 6.2788 2.46667 5.5998 3.15 4.9998L0.4 2.1998L1.8 0.799805L20.2 19.1998L18.8 20.5998ZM4.55 6.3998C4.06667 6.83314 3.625 7.30814 3.225 7.8248C2.825 8.34147 2.48333 8.8998 2.2 9.4998C3.03333 11.1831 4.229 12.5205 5.787 13.5118C7.34567 14.5038 9.08333 14.9998 11 14.9998C11.3333 14.9998 11.6583 14.9791 11.975 14.9378C12.2917 14.8958 12.6167 14.8498 12.95 14.7998L12.05 13.8498C11.8667 13.8998 11.6917 13.9371 11.525 13.9618C11.3583 13.9871 11.1833 13.9998 11 13.9998C9.75 13.9998 8.68733 13.5625 7.812 12.6878C6.93733 11.8125 6.5 10.7498 6.5 9.4998C6.5 9.31647 6.51233 9.14147 6.537 8.9748C6.56233 8.80814 6.6 8.63314 6.65 8.4498L4.55 6.3998Z" fill="#898989"/>
</svg>
