<svg width="100" height="59" viewBox="0 0 100 59" fill="none" xmlns="http://www.w3.org/2000/svg">
<path d="M15.4107 0H1C0.447715 0 0 0.447715 0 1V41.1987C0 41.4639 0.105357 41.7183 0.292893 41.9058L16.1178 57.7308C16.3054 57.9183 16.5597 58.0237 16.8249 58.0237H31.8215C32.3737 58.0237 32.8215 57.5759 32.8215 57.0237V42.6129C32.8215 42.0606 32.3748 41.6129 31.8225 41.6129H22.2717C17.114 41.6129 16.2154 37.7056 16.4107 35.752V1C16.4107 0.447715 15.963 0 15.4107 0Z" fill="#303030"/>
<path d="M83.6398 58.0234L98.0505 58.0234C98.6028 58.0234 99.0505 57.5757 99.0505 57.0234L99.0505 16.8247C99.0505 16.5595 98.9452 16.3052 98.7576 16.1176L82.9327 0.292666C82.7452 0.105132 82.4908 -0.000226515 82.2256 -0.000226538L67.2291 -0.000227849C66.6768 -0.000227897 66.2291 0.447488 66.2291 0.999772L66.2291 15.4105C66.2291 15.9628 66.6757 16.4105 67.228 16.4105L76.7788 16.4105C81.9365 16.4105 82.8352 20.3178 82.6398 22.2715L82.6398 57.0234C82.6398 57.5757 83.0875 58.0234 83.6398 58.0234Z" fill="#303030"/>
<path d="M48.8182 0H34.4075C33.8552 0 33.4075 0.447715 33.4075 1V41.1987C33.4075 41.4639 33.5128 41.7183 33.7004 41.9058L49.5253 57.7308C49.7128 57.9183 49.9672 58.0237 50.2324 58.0237H65.2289C65.7812 58.0237 66.2289 57.5759 66.2289 57.0237V42.6129C66.2289 42.0606 65.7823 41.6129 65.23 41.6129H55.6792C50.5215 41.6129 49.6228 37.7056 49.8182 35.752V1C49.8182 0.447715 49.3705 0 48.8182 0Z" fill="#303030"/>
<rect x="66.229" y="24.0298" width="10.5498" height="10.5498" rx="1" fill="#303030"/>
</svg>
